<svg width="55" height="56" viewBox="0 0 55 56" fill="none" xmlns="http://www.w3.org/2000/svg">
<circle cx="27.4632" cy="27.7473" r="27.2842" fill="#FFDFE3"/>
<mask id="mask0_3_5145" style="mask-type:alpha" maskUnits="userSpaceOnUse" x="0" y="0" width="55" height="56">
<circle cx="27.4632" cy="27.7473" r="27.2842" fill="#A5A7AC"/>
</mask>
<g mask="url(#mask0_3_5145)">
<path fill-rule="evenodd" clip-rule="evenodd" d="M55.5015 62.11V13.1157H0.178833V62.11C0.178833 62.548 0.432223 62.9062 0.742017 62.9062H54.9385C55.2481 62.9062 55.5015 62.5478 55.5015 62.11Z" fill="#EFF6FF"/>
<path fill-rule="evenodd" clip-rule="evenodd" d="M34.8634 42.2363L15.6535 26.8264L14.6962 30.1392L27.5782 46.2161L34.8634 42.2363Z" fill="#1BBA85"/>
<path fill-rule="evenodd" clip-rule="evenodd" d="M27.5781 46.2158L14.6961 30.1389L13.1796 35.388L23.5983 48.3885L27.5781 46.2158Z" fill="#CCF49F"/>
<path fill-rule="evenodd" clip-rule="evenodd" d="M23.5983 48.3877L13.1795 35.3872L11.0355 42.8125L15.8469 48.8145L17.9695 51.4604L22.8168 48.8145L23.5983 48.3877Z" fill="#1BBA85"/>
<path fill-rule="evenodd" clip-rule="evenodd" d="M15.8469 48.8152L11.0356 42.8132L9.51892 48.0587L10.1249 48.8152L13.9898 53.6339L17.9695 51.4611L15.8469 48.8152Z" fill="#CCF49F"/>
<path fill-rule="evenodd" clip-rule="evenodd" d="M13.9898 53.6341L10.1249 48.8153L9.51897 48.0588L9.30385 48.8153L7.5255 54.9679C7.2781 56.1152 7.39289 56.6315 7.95211 56.6423H7.98439C8.26044 56.6387 8.64044 56.5132 9.13523 56.2874L13.9898 53.6341Z" fill="#1BBA85"/>
<path fill-rule="evenodd" clip-rule="evenodd" d="M-1.60608 14.2026H54.7473V8.48755H17.5249H-1.60608V14.2026Z" fill="#9FD4FE"/>
<path fill-rule="evenodd" clip-rule="evenodd" d="M17.5248 9.74757H54.7472V0.0778269C54.7472 -0.237739 54.4891 -0.49585 54.1735 -0.49585C35.7703 -0.49585 17.367 -0.49585 -1.03265 -0.49585C-1.34821 -0.49585 -1.60632 -0.237739 -1.60632 0.0778269V9.74757H17.5248Z" fill="#1BBA85"/>
<path d="M12.8775 -2.78578V-0.49519H10.9802V-2.78578C10.9802 -4.15685 9.86338 -5.27242 8.4897 -5.27242C7.11863 -5.27242 6.00431 -4.15685 6.00431 -2.78578V1.79553C6.00431 3.16659 7.11863 4.28216 8.4897 4.28216C9.01327 4.28216 9.43826 4.70716 9.43826 5.23073C9.43826 5.75431 9.01327 6.1793 8.4897 6.1793C6.07261 6.1793 4.10706 4.2125 4.10706 1.7954V-2.78578C4.10706 -5.20288 6.07261 -7.16968 8.4897 -7.16968C10.9093 -7.16968 12.8775 -5.20288 12.8775 -2.78578Z" fill="#14C7FF"/>
<path d="M25.2287 -2.78578V-0.49519H23.3314V-2.78578C23.3314 -4.15685 22.2146 -5.27242 20.8409 -5.27242C19.4711 -5.27242 18.3555 -4.15685 18.3555 -2.78578V1.79553C18.3555 3.16659 19.4711 4.28216 20.8409 4.28216C21.3658 4.28216 21.7895 4.70716 21.7895 5.23073C21.7895 5.75431 21.3657 6.1793 20.8409 6.1793C18.4238 6.1793 16.4583 4.2125 16.4583 1.7954V-2.78578C16.4583 -5.20288 18.4239 -7.16968 20.841 -7.16968C23.2606 -7.16968 25.2287 -5.20288 25.2287 -2.78578Z" fill="#14C7FF"/>
<path d="M37.5799 -2.78578V-0.49519H35.6826V-2.78578C35.6826 -4.15685 34.5658 -5.27242 33.1921 -5.27242C31.8223 -5.27242 30.7067 -4.15685 30.7067 -2.78578V1.79553C30.7067 3.16659 31.8223 4.28216 33.1921 4.28216C33.717 4.28216 34.1407 4.70716 34.1407 5.23073C34.1407 5.75431 33.7169 6.1793 33.1921 6.1793C30.7762 6.1793 28.8094 4.2125 28.8094 1.7954V-2.78578C28.8094 -5.20288 30.7762 -7.16968 33.1921 -7.16968C35.6118 -7.16968 37.5799 -5.20288 37.5799 -2.78578Z" fill="#14C7FF"/>
<path d="M49.9309 -2.78578V-0.49519H48.0336V-2.78578C48.0336 -4.15685 46.918 -5.27242 45.547 -5.27242C44.1747 -5.27242 43.0577 -4.15685 43.0577 -2.78578V1.79553C43.0577 3.16659 44.1745 4.28216 45.547 4.28216C46.0719 4.28216 46.4957 4.70716 46.4957 5.23073C46.4957 5.75431 46.0719 6.1793 45.547 6.1793C43.1286 6.1793 41.1606 4.2125 41.1606 1.7954V-2.78578C41.1605 -5.20288 43.1285 -7.16968 45.5468 -7.16968C47.9641 -7.16968 49.9309 -5.20288 49.9309 -2.78578Z" fill="#14C7FF"/>
<path d="M30.6822 27.7562C30.4741 27.7562 30.2646 27.688 30.0895 27.5477C29.6808 27.22 29.615 26.623 29.9428 26.2141L33.478 21.804C33.8056 21.3952 34.4022 21.3295 34.8115 21.6573C35.2202 21.985 35.286 22.582 34.9582 22.9909L31.423 27.401C31.2356 27.6346 30.9602 27.7562 30.6822 27.7562Z" fill="#1BBA85"/>
<path d="M23.8957 29.09C23.6742 29.09 23.4517 29.013 23.2719 28.8557C22.8773 28.5111 22.8369 27.9118 23.1818 27.5173C24.3995 26.1235 25.7871 24.4256 26.8448 22.3998C27.0872 21.9353 27.6603 21.7552 28.1248 21.9979C28.5891 22.2403 28.7691 22.8133 28.5267 23.2778C27.3768 25.4802 25.9018 27.2879 24.6105 28.7657C24.4228 28.9802 24.1599 29.09 23.8957 29.09Z" fill="#9FD4FE"/>
<path d="M30.8543 34.6704C30.6591 34.6704 30.4623 34.6103 30.2932 34.4859C29.8709 34.1755 29.7805 33.5817 30.0908 33.1597C31.2561 31.5748 32.7027 29.74 34.5975 28.1479C34.9986 27.8109 35.597 27.8628 35.934 28.2639C36.2711 28.6651 36.219 29.2635 35.818 29.6005C34.0762 31.0639 32.7181 32.7891 31.6194 34.2835C31.4333 34.5363 31.1458 34.6704 30.8543 34.6704Z" fill="#9FD4FE"/>
<path d="M35.2317 38.1834C35.0418 38.1834 34.8501 38.1265 34.6833 38.0082C34.2562 37.7049 34.1558 37.1126 34.4591 36.6855C36.2329 34.188 38.8595 31.2932 43.466 31.0741C43.9874 31.0487 44.4337 31.4533 44.4585 31.9766C44.4834 32.4999 44.0794 32.9443 43.5561 32.9691C39.789 33.1484 37.6255 35.5036 36.006 37.784C35.821 38.0445 35.5286 38.1834 35.2317 38.1834Z" fill="#1BBA85"/>
<path d="M20.833 25.0136C20.6684 25.0136 20.5015 24.9707 20.3497 24.8806C19.8992 24.6132 19.7507 24.0311 20.0182 23.5807C20.5519 22.6815 21.0728 21.5424 20.8881 19.9122C20.829 19.3917 21.2033 18.9219 21.724 18.8629C22.2427 18.8047 22.7142 19.1781 22.7733 19.6988C23.0227 21.9001 22.3038 23.4472 21.6496 24.5492C21.4724 24.8477 21.1568 25.0136 20.833 25.0136Z" fill="#1BBA85"/>
<path fill-rule="evenodd" clip-rule="evenodd" d="M8.60106 51.2434L7.5255 54.9686C7.2781 56.116 7.39289 56.6322 7.95211 56.6431H7.98439C8.26044 56.6394 8.64045 56.5139 9.13523 56.2881L13.9897 53.635L11.0139 49.9241L8.60106 51.2434Z" fill="#1BBA85"/>
<path fill-rule="evenodd" clip-rule="evenodd" d="M11.0139 49.9226L13.9897 53.6335L17.9694 51.4606L15.8468 48.8147L14.9936 47.7498L13.0467 48.8147L11.0139 49.9226Z" fill="#B3E59F"/>
<path fill-rule="evenodd" clip-rule="evenodd" d="M14.9939 47.7497L15.8471 48.8147L17.9697 51.4606L22.817 48.8147L23.5985 48.388L20.6227 44.6736L14.9939 47.7497Z" fill="#1BBA85"/>
<path fill-rule="evenodd" clip-rule="evenodd" d="M20.6227 44.6735L23.5986 48.3879L27.5783 46.2152L24.6025 42.5007L20.6227 44.6735Z" fill="#B3E59F"/>
<path fill-rule="evenodd" clip-rule="evenodd" d="M24.602 42.5003L27.5778 46.2148L34.863 42.2349L30.9013 39.0583L24.602 42.5003Z" fill="#1BBA85"/>
<path fill-rule="evenodd" clip-rule="evenodd" d="M49.5269 -0.49585V8.48556V9.74757H54.747V8.48556V0.0778269C54.747 -0.237739 54.4889 -0.49585 54.1733 -0.49585H50.477H49.5269Z" fill="#1BBA85"/>
<path fill-rule="evenodd" clip-rule="evenodd" d="M49.5269 9.74902V12.9365V14.2021H54.747V12.9365V9.74902H49.5269Z" fill="#85BEEF"/>
<path fill-rule="evenodd" clip-rule="evenodd" d="M48.6151 14.9595V55.5295H50.8721H53.5394C53.8737 55.5295 54.1474 55.2269 54.1474 54.8571V14.9595H48.6151Z" fill="#D9EEFF"/>
<path fill-rule="evenodd" clip-rule="evenodd" d="M-1.60608 14.2014H54.7473V18.0665H-1.60608V14.2014Z" fill="#D9EEFF"/>
<path d="M36.6087 44.5828C36.4004 44.5828 36.1908 44.5146 36.0158 44.3742L13.3138 26.1676C12.9051 25.84 12.8394 25.2429 13.1673 24.8341C13.4951 24.4257 14.0922 24.3597 14.5009 24.6876L37.2028 42.8942C37.6115 43.2219 37.6771 43.819 37.3492 44.2278C37.1619 44.4613 36.8866 44.5828 36.6087 44.5828Z" fill="#14C7FF"/>
</g>
</svg>
