<svg width="56" height="56" viewBox="0 0 56 56" fill="none" xmlns="http://www.w3.org/2000/svg">
<circle cx="28.0105" cy="27.7473" r="27.2842" fill="#C4EBFF"/>
<mask id="mask0_3_4824" style="mask-type:alpha" maskUnits="userSpaceOnUse" x="0" y="0" width="56" height="56">
<circle cx="28.0105" cy="27.7473" r="27.2842" fill="#CAEDFF"/>
</mask>
<g mask="url(#mask0_3_4824)">
<g opacity="0.75">
<path d="M54.7773 20.931C55.3117 13.2428 50.0771 5.39073 42.1841 2.07238C39.0324 0.747774 35.4422 0.0922975 32.0575 0.679495C30.0431 1.02089 28.1384 1.79927 26.3296 2.64592C23.082 4.18903 19.9165 6.12814 18.0666 8.96854C16.943 10.6892 16.2304 12.7922 14.3257 13.8163C12.1332 14.9907 9.29661 14.2533 6.72043 14.3626C3.92499 14.4855 1.23918 15.6872 -0.501121 17.6126C-2.24142 19.5381 -3.00879 22.1327 -2.55659 24.6044C-2.11809 27.0488 -0.569636 29.2337 0.0881138 31.6371C0.882895 34.4912 0.389583 37.4954 0.869192 40.4041C1.7873 45.9074 6.50118 50.8234 12.4757 52.5168C14.1064 52.9811 15.8467 53.2132 17.5322 52.9674C19.6836 52.6533 21.5746 51.5609 23.6575 51.001C27.097 50.0724 30.8105 50.6186 34.4007 51.001C36.881 51.2604 39.4161 51.438 41.8415 50.9873C43.4585 50.6869 45.007 50.127 46.4458 49.4032C52.6807 46.2351 56.4902 40.0354 57.3535 33.6582C58.2168 27.2673 56.4217 20.7398 53.4207 14.8132" fill="#C1EBFF"/>
</g>
<path d="M38.6871 53.3374L49.349 53.3374L49.349 22.8482L38.6871 22.8482L38.6871 53.3374Z" fill="#1EC28B"/>
<path opacity="0.1" d="M38.6786 22.8533V53.3424H49.3405V53.1115L39.204 22.8533H38.6786Z" fill="#121420"/>
<g opacity="0.58">
<g opacity="0.58">
<path opacity="0.58" d="M47.7025 41.5607H48.2588C48.3515 41.5607 48.4442 41.4837 48.4442 41.3759V41.2219C48.4442 41.1295 48.3669 41.0371 48.2588 41.0371H47.7025C47.6098 41.0371 47.5171 41.1141 47.5171 41.2219V41.3759C47.5325 41.4837 47.6098 41.5607 47.7025 41.5607Z" fill="#1BBA85"/>
<path opacity="0.58" d="M47.0688 42.1612H47.6251C47.7178 42.1612 47.8105 42.0842 47.8105 41.9765V41.8225C47.8105 41.7301 47.7333 41.6377 47.6251 41.6377H47.0688C46.9761 41.6377 46.8834 41.7147 46.8834 41.8225V41.9765C46.8834 42.0842 46.9761 42.1612 47.0688 42.1612Z" fill="#1BBA85"/>
<path opacity="0.58" d="M46.6672 41.5604H47.2235C47.3162 41.5604 47.4089 41.4834 47.4089 41.3756V41.2216C47.4089 41.1293 47.3317 41.0369 47.2235 41.0369H46.6672C46.5745 41.0369 46.4818 41.1139 46.4818 41.2216V41.3756C46.4818 41.4834 46.5745 41.5604 46.6672 41.5604Z" fill="#1BBA85"/>
</g>
<g opacity="0.58">
<path opacity="0.58" d="M40.9501 25.2687H41.5063C41.599 25.2687 41.6918 25.1917 41.6918 25.0839V24.9299C41.6918 24.8375 41.6145 24.7451 41.5063 24.7451H40.9501C40.8574 24.7451 40.7646 24.8221 40.7646 24.9299V25.0839C40.7646 25.1917 40.8419 25.2687 40.9501 25.2687Z" fill="#1BBA85"/>
<path opacity="0.58" d="M40.3167 25.8695H40.8729C40.9656 25.8695 41.0583 25.7925 41.0583 25.6847V25.5307C41.0583 25.4383 40.9811 25.3459 40.8729 25.3459H40.3167C40.2239 25.3459 40.1312 25.4229 40.1312 25.5307V25.6847C40.1312 25.7925 40.2085 25.8695 40.3167 25.8695Z" fill="#1BBA85"/>
<path opacity="0.58" d="M39.9148 25.2694H40.4711C40.5638 25.2694 40.6565 25.1924 40.6565 25.0846V24.9306C40.6565 24.8382 40.5792 24.7458 40.4711 24.7458H39.9148C39.8221 24.7458 39.7294 24.8228 39.7294 24.9306V25.0846C39.7294 25.1924 39.8066 25.2694 39.9148 25.2694Z" fill="#1BBA85"/>
</g>
</g>
<path d="M38.6929 23.3115L49.4938 23.3115L49.4938 22.326L38.6929 22.326L38.6929 23.3115Z" fill="#1BBA85"/>
<path d="M38.6786 22.313H49.495L47.5944 16.5847H39.1885L38.6786 22.313Z" fill="#1BBA85"/>
<path d="M38.6874 24.0369L49.3492 24.0369L49.3492 23.6519L38.6874 23.6519L38.6874 24.0369Z" fill="#1BBA85"/>
<path d="M38.687 39.2341L49.3489 39.2341L49.3489 36.8628L38.687 36.8628L38.687 39.2341Z" fill="#1BBA85"/>
<path d="M38.687 39.8618L49.3489 39.8618L49.3489 39.4768L38.687 39.4768L38.687 39.8618Z" fill="#1BBA85"/>
<path d="M45.9917 50.4656V42.1965H42.1905V50.4656H45.9917Z" fill="#BADBED"/>
<path opacity="0.13" d="M45.9877 50.1356V50.4744H42.1865V42.2053H43.4845C42.99 43.0368 42.6964 44.1301 42.6964 45.3004C42.6964 47.9182 44.1644 50.0432 45.9877 50.1356Z" fill="#121420"/>
<path opacity="0.35" d="M38.7508 50.7257L39.525 51.5642L49.4179 42.4933L48.6436 41.6547L38.7508 50.7257Z" fill="white"/>
<path opacity="0.35" d="M48.0271 40.9911L47.64 40.5718L37.7472 49.6427L38.1343 50.062L48.0271 40.9911Z" fill="white"/>
<path opacity="0.35" d="M50.2897 43.9393L50.0072 43.6333L40.1143 52.7042L40.3968 53.0102L50.2897 43.9393Z" fill="white"/>
<path opacity="0.21" d="M45.9877 42.2063V42.5605H42.5265V50.4753H42.1865V42.2063H45.9877Z" fill="#121420"/>
<path d="M41.6919 41.6982V50.9682H46.4975V41.6982H41.6919ZM45.9875 50.4754H42.1864V45.2399H45.9875V50.4754ZM45.9875 44.7472H42.1864V42.2064H45.9875V44.7472Z" fill="white"/>
<path d="M45.9839 34.3359V26.0669H42.1827V34.3359H45.9839Z" fill="#BADBED"/>
<path opacity="0.13" d="M45.9897 33.9998V34.3386H42.1885V26.0696H43.4864C42.992 26.9011 42.6984 27.9944 42.6984 29.1647C42.6984 31.7824 44.1663 33.9228 45.9897 33.9998Z" fill="#121420"/>
<path opacity="0.35" d="M38.7567 34.5911L39.5309 35.4297L49.4237 26.3588L48.6495 25.5202L38.7567 34.5911Z" fill="white"/>
<path opacity="0.35" d="M48.0326 24.856L47.6455 24.4368L37.7527 33.5077L38.1398 33.927L48.0326 24.856Z" fill="white"/>
<path opacity="0.35" d="M50.2953 27.8043L50.0128 27.4983L40.12 36.5692L40.4025 36.8752L50.2953 27.8043Z" fill="white"/>
<path opacity="0.21" d="M45.9876 26.0688V26.4384H42.5263V34.3533H42.1864V26.0688H45.9876Z" fill="#121420"/>
<path d="M41.6918 25.5764V34.8464H46.4974V25.5764H41.6918ZM45.9874 34.3382H42.1862V29.1027H45.9874V34.3382ZM45.9874 28.6099H42.1862V26.0692H45.9874V28.6099Z" fill="white"/>
<path d="M16.7366 22.9294H6.07471V53.4186H16.7366V22.9294Z" fill="#1EC28B"/>
<path opacity="0.07" d="M16.7366 22.9294V53.4186H6.07471V53.1876L16.2267 22.9294H16.7366Z" fill="#121420"/>
<g opacity="0.58">
<g opacity="0.58">
<path opacity="0.58" d="M7.71264 41.638H7.15637C7.06366 41.638 6.97095 41.5611 6.97095 41.4533V41.2993C6.97095 41.2069 7.04821 41.1145 7.15637 41.1145H7.71264C7.80535 41.1145 7.89806 41.1915 7.89806 41.2993V41.4533C7.89806 41.5611 7.8208 41.638 7.71264 41.638Z" fill="#1BBA85"/>
<path opacity="0.58" d="M8.34619 42.2533H7.78992C7.6972 42.2533 7.60449 42.1763 7.60449 42.0685V41.9145C7.60449 41.8221 7.68175 41.7297 7.78992 41.7297H8.34619C8.4389 41.7297 8.53161 41.8067 8.53161 41.9145V42.0685C8.53161 42.1609 8.45435 42.2533 8.34619 42.2533Z" fill="#1BBA85"/>
<path opacity="0.58" d="M8.7478 41.6378H8.19153C8.09882 41.6378 8.0061 41.5608 8.0061 41.453V41.299C8.0061 41.2066 8.08336 41.1143 8.19153 41.1143H8.7478C8.84051 41.1143 8.93322 41.1912 8.93322 41.299V41.453C8.93322 41.5608 8.85596 41.6378 8.7478 41.6378Z" fill="#1BBA85"/>
</g>
<g opacity="0.58">
<path opacity="0.58" d="M14.4806 25.3456H13.9243C13.8316 25.3456 13.7389 25.2686 13.7389 25.1608V25.0068C13.7389 24.9144 13.8162 24.822 13.9243 24.822H14.4806C14.5733 24.822 14.666 24.899 14.666 25.0068V25.1608C14.6506 25.2686 14.5733 25.3456 14.4806 25.3456Z" fill="#1BBA85"/>
<path opacity="0.58" d="M15.1141 25.9452H14.5579C14.4651 25.9452 14.3724 25.8682 14.3724 25.7604V25.6064C14.3724 25.514 14.4497 25.4216 14.5579 25.4216H15.1141C15.2068 25.4216 15.2996 25.4986 15.2996 25.6064V25.7604C15.2841 25.8682 15.2068 25.9452 15.1141 25.9452Z" fill="#1BBA85"/>
<path opacity="0.58" d="M15.5157 25.3448H14.9595C14.8668 25.3448 14.774 25.2678 14.774 25.1601V25.0061C14.774 24.9137 14.8513 24.8213 14.9595 24.8213H15.5157C15.6085 24.8213 15.7012 24.8983 15.7012 25.0061V25.1601C15.6857 25.2678 15.6085 25.3448 15.5157 25.3448Z" fill="#1BBA85"/>
</g>
</g>
<path d="M16.7367 22.3906H5.93579V23.3761H16.7367V22.3906Z" fill="#1BBA85"/>
<path d="M16.7366 22.3901H5.93567L7.82081 16.6772H16.2267L16.7366 22.3901Z" fill="#1BBA85"/>
<path d="M16.7367 23.7456H6.07483V24.1306H16.7367V23.7456Z" fill="#1BBA85"/>
<path d="M16.7367 36.9268H6.07483V39.2981H16.7367V36.9268Z" fill="#1BBA85"/>
<path d="M16.7367 39.5605H6.07483V39.9455H16.7367V39.5605Z" fill="#1BBA85"/>
<path d="M13.2411 50.5542L13.2411 42.2852H9.4399L9.4399 50.5542H13.2411Z" fill="#BADBED"/>
<path opacity="0.13" d="M13.2288 50.2159V50.5547H9.42761V42.2856H10.7256C10.2311 43.1172 9.93753 44.2105 9.93753 45.3808C9.95298 47.9985 11.4055 50.1235 13.2288 50.2159Z" fill="#121420"/>
<path opacity="0.35" d="M6.00275 50.8123L6.77698 51.6509L16.6698 42.5799L15.8956 41.7414L6.00275 50.8123Z" fill="white"/>
<path opacity="0.35" d="M15.271 41.0672L14.8839 40.6479L4.99104 49.7189L5.37815 50.1382L15.271 41.0672Z" fill="white"/>
<path opacity="0.35" d="M17.5337 44.0154L17.2512 43.7095L7.35837 52.7804L7.64085 53.0864L17.5337 44.0154Z" fill="white"/>
<path opacity="0.21" d="M13.2288 42.2866V42.6408H9.76756V50.5557H9.42761V42.2866H13.2288Z" fill="#121420"/>
<path d="M8.93335 41.7778V51.0478H13.7389V41.7778H8.93335ZM13.229 50.555H9.42781V45.3195H13.229V50.555ZM13.229 44.8267H9.42781V42.286H13.229V44.8267Z" fill="white"/>
<path d="M13.2339 34.425L13.2339 26.156H9.43269L9.43269 34.425H13.2339Z" fill="#BADBED"/>
<path opacity="0.13" d="M13.2293 34.0777V34.4165H9.4281V26.1475H10.7261C10.2316 26.979 9.93802 28.0723 9.93802 29.2426C9.95347 31.8603 11.406 34.0007 13.2293 34.0777Z" fill="#121420"/>
<path opacity="0.35" d="M6.00946 34.6773L6.78369 35.5159L16.6766 26.4449L15.9023 25.6064L6.00946 34.6773Z" fill="white"/>
<path opacity="0.35" d="M15.2771 24.9308L14.89 24.5115L4.99714 33.5824L5.38426 34.0017L15.2771 24.9308Z" fill="white"/>
<path opacity="0.35" d="M17.5398 27.879L17.2573 27.573L7.36446 36.6439L7.64695 36.9499L17.5398 27.879Z" fill="white"/>
<path opacity="0.21" d="M13.2292 26.1475V26.517H9.76792V34.4319H9.42798V26.1475H13.2292Z" fill="#121420"/>
<path d="M8.93347 25.6553V34.9252H13.739V25.6553H8.93347ZM13.2291 34.4324H9.42794V29.1969H13.2291V34.4324ZM13.2291 28.6888H9.42794V26.148H13.2291V28.6888Z" fill="white"/>
<path d="M39.8679 11.7964H15.6855V53.4495H39.8679V11.7964Z" fill="#1EC28B"/>
<path opacity="0.07" d="M39.8678 16.0134V53.4473H16.01L39.8678 16.0134Z" fill="#121420"/>
<path d="M40.6872 52.4485H14.8669V53.434H40.6872V52.4485Z" fill="#1BBA85"/>
<path opacity="0.09" d="M39.8679 41.4688H15.6855V42.2849H39.8679V41.4688Z" fill="black"/>
<path d="M40.6871 38.6824H14.8668V39.6679H40.6871V38.6824Z" fill="#1BBA85"/>
<path d="M41.7377 41.6693H13.8159L14.913 39.6829H40.7487L41.7377 41.6693Z" fill="#1BBA85"/>
<path d="M39.9298 37.8657H15.7474V38.1121H39.9298V37.8657Z" fill="#1BBA85"/>
<path d="M40.6872 9.93262H14.8669V12.304H40.6872V9.93262Z" fill="#1BBA85"/>
<path d="M39.9454 12.3042H15.7631V13.1973H39.9454V12.3042Z" fill="#1BBA85"/>
<path d="M39.9299 13.4744H15.7476V13.7207H39.9299V13.4744Z" fill="#1BBA85"/>
<path d="M40.6872 9.93273H14.8669L17.4629 7.28418H38.0912L40.6872 9.93273Z" fill="#1BBA85"/>
<g opacity="0.63">
<g opacity="0.63">
<path opacity="0.63" d="M17.478 44.5817H16.9218C16.829 44.5817 16.7363 44.5047 16.7363 44.3969V44.2429C16.7363 44.1505 16.8136 44.0581 16.9218 44.0581H17.478C17.5707 44.0581 17.6634 44.1351 17.6634 44.2429V44.3969C17.648 44.5047 17.5707 44.5817 17.478 44.5817Z" fill="#1BBA85"/>
<path opacity="0.63" d="M18.1117 45.182H17.5554C17.4627 45.182 17.37 45.105 17.37 44.9972V44.8432C17.37 44.7508 17.4473 44.6584 17.5554 44.6584H18.1117C18.2044 44.6584 18.2971 44.7354 18.2971 44.8432V44.9972C18.2817 45.105 18.2044 45.182 18.1117 45.182Z" fill="#1BBA85"/>
<path opacity="0.63" d="M18.5133 44.5812H17.957C17.8643 44.5812 17.7716 44.5042 17.7716 44.3964V44.2424C17.7716 44.15 17.8489 44.0576 17.957 44.0576H18.5133C18.606 44.0576 18.6987 44.1346 18.6987 44.2424V44.3964C18.6833 44.5042 18.606 44.5812 18.5133 44.5812Z" fill="#1BBA85"/>
</g>
<g opacity="0.63">
<path opacity="0.63" d="M19.6726 48.7843H19.1163C19.0236 48.7843 18.9309 48.7073 18.9309 48.5995V48.4455C18.9309 48.3531 19.0082 48.2607 19.1163 48.2607H19.6726C19.7653 48.2607 19.858 48.3377 19.858 48.4455V48.5995C19.8426 48.7073 19.7653 48.7843 19.6726 48.7843Z" fill="#1BBA85"/>
<path opacity="0.63" d="M20.3063 49.3837H19.75C19.6573 49.3837 19.5646 49.3067 19.5646 49.1989V49.0449C19.5646 48.9525 19.6418 48.8601 19.75 48.8601H20.3063C20.399 48.8601 20.4917 48.9371 20.4917 49.0449V49.1989C20.4762 49.3067 20.399 49.3837 20.3063 49.3837Z" fill="#1BBA85"/>
<path opacity="0.63" d="M20.7079 48.7828H20.1516C20.0589 48.7828 19.9662 48.7058 19.9662 48.598V48.4441C19.9662 48.3517 20.0434 48.2593 20.1516 48.2593H20.7079C20.8006 48.2593 20.8933 48.3363 20.8933 48.4441V48.598C20.8779 48.7058 20.8006 48.7828 20.7079 48.7828Z" fill="#1BBA85"/>
</g>
<g opacity="0.63">
<path opacity="0.63" d="M34.3672 43.0719H33.8109C33.7182 43.0719 33.6255 42.9949 33.6255 42.8871V42.7331C33.6255 42.6407 33.7027 42.5483 33.8109 42.5483H34.3672C34.4599 42.5483 34.5526 42.6253 34.5526 42.7331V42.8871C34.5526 42.9949 34.4599 43.0719 34.3672 43.0719Z" fill="#1BBA85"/>
<path opacity="0.63" d="M35.0008 43.6725H34.4446C34.3519 43.6725 34.2592 43.5955 34.2592 43.4877V43.3337C34.2592 43.2413 34.3364 43.1489 34.4446 43.1489H35.0008C35.0936 43.1489 35.1863 43.2259 35.1863 43.3337V43.4877C35.1863 43.5955 35.0936 43.6725 35.0008 43.6725Z" fill="#1BBA85"/>
<path opacity="0.63" d="M35.4025 43.0716H34.8462C34.7535 43.0716 34.6608 42.9947 34.6608 42.8869V42.7329C34.6608 42.6405 34.738 42.5481 34.8462 42.5481H35.4025C35.4952 42.5481 35.5879 42.6251 35.5879 42.7329V42.8869C35.5879 42.9947 35.4952 43.0716 35.4025 43.0716Z" fill="#1BBA85"/>
</g>
<g opacity="0.63">
<path opacity="0.63" d="M30.3651 15.5702H29.8088C29.7161 15.5702 29.6234 15.4932 29.6234 15.3854V15.2314C29.6234 15.139 29.7007 15.0466 29.8088 15.0466H30.3651C30.4578 15.0466 30.5505 15.1236 30.5505 15.2314V15.3854C30.5351 15.4778 30.4578 15.5702 30.3651 15.5702Z" fill="#1BBA85"/>
<path opacity="0.63" d="M30.9988 16.1703H30.4425C30.3498 16.1703 30.2571 16.0933 30.2571 15.9855V15.8315C30.2571 15.7391 30.3343 15.6467 30.4425 15.6467H30.9988C31.0915 15.6467 31.1842 15.7237 31.1842 15.8315V15.9855C31.1842 16.0933 31.0915 16.1703 30.9988 16.1703Z" fill="#1BBA85"/>
<path opacity="0.63" d="M31.4004 15.5699H30.8441C30.7514 15.5699 30.6587 15.4929 30.6587 15.3852V15.2312C30.6587 15.1388 30.7359 15.0464 30.8441 15.0464H31.4004C31.4931 15.0464 31.5858 15.1234 31.5858 15.2312V15.3852C31.5858 15.4775 31.4931 15.5699 31.4004 15.5699Z" fill="#1BBA85"/>
</g>
<g opacity="0.63">
<path opacity="0.63" d="M17.061 30.2755H16.5048C16.412 30.2755 16.3193 30.1985 16.3193 30.0907V29.9367C16.3193 29.8443 16.3966 29.752 16.5048 29.752H17.061C17.1537 29.752 17.2465 29.8289 17.2465 29.9367V30.0907C17.231 30.1985 17.1537 30.2755 17.061 30.2755Z" fill="#1BBA85"/>
<path opacity="0.63" d="M17.6947 30.8754H17.1384C17.0457 30.8754 16.953 30.7984 16.953 30.6906V30.5366C16.953 30.4442 17.0303 30.3518 17.1384 30.3518H17.6947C17.7874 30.3518 17.8801 30.4288 17.8801 30.5366V30.6906C17.8801 30.7984 17.7874 30.8754 17.6947 30.8754Z" fill="#1BBA85"/>
<path opacity="0.63" d="M18.0963 30.2745H17.54C17.4473 30.2745 17.3546 30.1975 17.3546 30.0898V29.9358C17.3546 29.8434 17.4319 29.751 17.54 29.751H18.0963C18.189 29.751 18.2817 29.828 18.2817 29.9358V30.0898C18.2817 30.1975 18.189 30.2745 18.0963 30.2745Z" fill="#1BBA85"/>
</g>
<g opacity="0.63">
<path opacity="0.63" d="M37.1174 23.4076H36.5612C36.4684 23.4076 36.3757 23.3306 36.3757 23.2228V23.0688C36.3757 22.9764 36.453 22.884 36.5612 22.884H37.1174C37.2101 22.884 37.3029 22.961 37.3029 23.0688V23.2228C37.3029 23.3306 37.2101 23.4076 37.1174 23.4076Z" fill="#1BBA85"/>
<path opacity="0.63" d="M37.7511 24.0072H37.1948C37.1021 24.0072 37.0094 23.9302 37.0094 23.8224V23.6684C37.0094 23.576 37.0867 23.4836 37.1948 23.4836H37.7511C37.8438 23.4836 37.9365 23.5606 37.9365 23.6684V23.8224C37.9365 23.9302 37.8593 24.0072 37.7511 24.0072Z" fill="#1BBA85"/>
<path opacity="0.63" d="M38.1527 23.4071H37.5964C37.5037 23.4071 37.411 23.3301 37.411 23.2223V23.0683C37.411 22.9759 37.4883 22.8835 37.5964 22.8835H38.1527C38.2454 22.8835 38.3381 22.9605 38.3381 23.0683V23.2223C38.3381 23.3301 38.2609 23.4071 38.1527 23.4071Z" fill="#1BBA85"/>
</g>
<g opacity="0.63">
<path opacity="0.63" d="M37.4731 49.7548H36.9169C36.8242 49.7548 36.7314 49.6778 36.7314 49.57V49.416C36.7314 49.3236 36.8087 49.2312 36.9169 49.2312H37.4731C37.5659 49.2312 37.6586 49.3082 37.6586 49.416V49.57C37.6431 49.6778 37.5659 49.7548 37.4731 49.7548Z" fill="#1BBA85"/>
<path opacity="0.63" d="M38.1067 50.3546H37.5504C37.4577 50.3546 37.365 50.2776 37.365 50.1698V50.0158C37.365 49.9234 37.4422 49.8311 37.5504 49.8311H38.1067C38.1994 49.8311 38.2921 49.908 38.2921 50.0158V50.1698C38.2767 50.2776 38.1994 50.3546 38.1067 50.3546Z" fill="#1BBA85"/>
<path opacity="0.63" d="M38.5084 49.7543H37.9521C37.8594 49.7543 37.7667 49.6773 37.7667 49.5695V49.4155C37.7667 49.3231 37.844 49.2307 37.9521 49.2307H38.5084C38.6011 49.2307 38.6938 49.3077 38.6938 49.4155V49.5695C38.6784 49.6773 38.6011 49.7543 38.5084 49.7543Z" fill="#1BBA85"/>
</g>
</g>
<path d="M36.5612 16.7231H32.6055V20.6652H36.5612V16.7231Z" fill="#BADBED"/>
<path opacity="0.13" d="M36.5612 19.6181V20.6652H32.6055V16.7231H33.1772C33.1772 16.7231 33.1617 16.7385 33.1617 16.7539C33.0072 17.0619 32.93 17.4007 32.93 17.7548C32.93 19.0175 33.9652 20.0338 35.2323 20.0338C35.6959 20.0338 36.1285 19.8952 36.4994 19.6643C36.5148 19.6489 36.5457 19.6335 36.5612 19.6181Z" fill="#121420"/>
<path opacity="0.35" d="M37.7591 15.8847L37.5917 15.7034L28.2901 24.2321L28.4575 24.4134L37.7591 15.8847Z" fill="white"/>
<path opacity="0.35" d="M29.5658 23.9272L30.2982 24.7205L39.5998 16.1917L38.8674 15.3985L29.5658 23.9272Z" fill="white"/>
<path opacity="0.35" d="M37.9979 14.5665L37.7363 14.2832L28.4348 22.812L28.6963 23.0953L37.9979 14.5665Z" fill="white"/>
<path opacity="0.21" d="M36.5612 16.7231V17.0465H32.9609V20.6652H32.6055V16.7231H36.5612Z" fill="#121420"/>
<path d="M32.1417 16.2463V21.1277H37.04V16.2463H32.1417ZM34.8149 16.7237H36.561V18.4637H34.8149V16.7237ZM34.3514 20.6657H32.6053V18.9257H34.3514V20.6657ZM34.3514 18.4637H32.6053V16.7237H34.3514V18.4637ZM36.561 20.6657H34.8149V18.9257H36.561V20.6657Z" fill="white"/>
<path d="M29.7158 16.7217H25.7601V20.6637H29.7158V16.7217Z" fill="#BADBED"/>
<path opacity="0.13" d="M29.7158 19.6166V20.6637H25.7601V16.7217H26.3319C26.3319 16.7217 26.3164 16.7371 26.3164 16.7525C26.1619 17.0604 26.0846 17.3992 26.0846 17.7534C26.0846 19.0161 27.1199 20.0324 28.387 20.0324C28.8505 20.0324 29.2832 19.8938 29.654 19.6628C29.6695 19.6474 29.6849 19.632 29.7158 19.6166Z" fill="#121420"/>
<path opacity="0.35" d="M30.9021 15.8732L30.7347 15.6919L21.4332 24.2207L21.6006 24.402L30.9021 15.8732Z" fill="white"/>
<path opacity="0.35" d="M22.7165 23.9241L23.4489 24.7173L32.7504 16.1885L32.018 15.3953L22.7165 23.9241Z" fill="white"/>
<path opacity="0.35" d="M31.1515 14.567L30.8899 14.2837L21.5883 22.8125L21.8499 23.0958L31.1515 14.567Z" fill="white"/>
<path opacity="0.21" d="M29.7158 16.7217V17.045H26.1155V20.6637H25.7601V16.7217H29.7158Z" fill="#121420"/>
<path d="M25.2965 16.2449V21.1262H30.1948V16.2449H25.2965ZM27.9697 16.7222H29.7158V18.4623H27.9697V16.7222ZM27.5061 20.6643H25.7601V18.9242H27.5061V20.6643ZM27.5061 18.4623H25.7601V16.7222H27.5061V18.4623ZM29.7158 20.6643H27.9697V18.9242H29.7158V20.6643Z" fill="white"/>
<path d="M22.9483 16.7234H18.9926V20.6654H22.9483V16.7234Z" fill="#BADBED"/>
<path opacity="0.13" d="M22.9483 19.6183V20.6654H18.9926V16.7234H19.5643C19.5643 16.7234 19.5488 16.7388 19.5488 16.7542C19.3943 17.0622 19.317 17.4009 19.317 17.7551C19.317 19.0178 20.3523 20.0341 21.6194 20.0341C22.0829 20.0341 22.5156 19.8955 22.8865 19.6645C22.9019 19.6491 22.9174 19.6337 22.9483 19.6183Z" fill="#121420"/>
<path opacity="0.35" d="M24.1346 15.8749L23.9672 15.6936L14.6656 24.2224L14.833 24.4037L24.1346 15.8749Z" fill="white"/>
<path opacity="0.35" d="M15.9488 23.925L16.6812 24.7183L25.9827 16.1895L25.2503 15.3963L15.9488 23.925Z" fill="white"/>
<path opacity="0.35" d="M24.3839 14.5687L24.1223 14.2854L14.8208 22.8142L15.0823 23.0975L24.3839 14.5687Z" fill="white"/>
<path opacity="0.21" d="M22.9483 16.7234V17.0468H19.3479V20.6654H18.9926V16.7234H22.9483Z" fill="#121420"/>
<path d="M18.5286 16.2463V21.1277H23.4268V16.2463H18.5286ZM21.2018 16.7237H22.9478V18.4637H21.2018V16.7237ZM20.7382 20.6657H18.9921V18.9257H20.7382V20.6657ZM20.7382 18.4637H18.9921V16.7237H20.7382V18.4637ZM22.9478 20.6657H21.2018V18.9257H22.9478V20.6657Z" fill="white"/>
<path d="M36.5614 23.8223H32.6057V27.7643H36.5614V23.8223Z" fill="#BADBED"/>
<path opacity="0.13" d="M36.5614 26.7172V27.7643H32.6057V23.8223H33.1774C33.1774 23.8223 33.162 23.8377 33.162 23.8531C33.0075 24.161 32.9302 24.4998 32.9302 24.854C32.9302 26.1167 33.9655 27.133 35.2325 27.133C35.6961 27.133 36.1288 26.9944 36.4996 26.7634C36.5151 26.748 36.546 26.7326 36.5614 26.7172Z" fill="#121420"/>
<path opacity="0.35" d="M37.7593 22.9838L37.5919 22.8025L28.2904 31.3313L28.4578 31.5126L37.7593 22.9838Z" fill="white"/>
<path opacity="0.35" d="M29.5663 31.0259L30.2987 31.8191L39.6003 23.2903L38.8679 22.4971L29.5663 31.0259Z" fill="white"/>
<path opacity="0.35" d="M37.9981 21.6656L37.7366 21.3823L28.435 29.9111L28.6966 30.1944L37.9981 21.6656Z" fill="white"/>
<path opacity="0.21" d="M36.5614 23.8223V24.1456H32.9611V27.7643H32.6057V23.8223H36.5614Z" fill="#121420"/>
<path d="M32.1422 23.3447V28.2261H37.0405V23.3447H32.1422ZM34.8154 23.8221H36.5615V25.5621H34.8154V23.8221ZM34.3518 27.7641H32.6058V26.0241H34.3518V27.7641ZM34.3518 25.5621H32.6058V23.8221H34.3518V25.5621ZM36.5615 27.7641H34.8154V26.0241H36.5615V27.7641Z" fill="white"/>
<path d="M29.716 23.8225H25.7603V27.7646H29.716V23.8225Z" fill="#BADBED"/>
<path opacity="0.13" d="M29.716 26.7175V27.7646H25.7603V23.8225H26.332C26.332 23.8225 26.3165 23.8379 26.3165 23.8533C26.162 24.1613 26.0847 24.5001 26.0847 24.8542C26.0847 26.1169 27.12 27.1332 28.3871 27.1332C28.8506 27.1332 29.2833 26.9946 29.6541 26.7636C29.6696 26.7482 29.685 26.7328 29.716 26.7175Z" fill="#121420"/>
<path opacity="0.35" d="M30.9023 22.9733L30.7349 22.792L21.4333 31.3208L21.6007 31.5021L30.9023 22.9733Z" fill="white"/>
<path opacity="0.35" d="M22.7168 31.0234L23.4492 31.8167L32.7508 23.2879L32.0184 22.4947L22.7168 31.0234Z" fill="white"/>
<path opacity="0.35" d="M31.1516 21.6671L30.89 21.3838L21.5884 29.9126L21.85 30.1958L31.1516 21.6671Z" fill="white"/>
<path opacity="0.21" d="M29.716 23.8225V24.1459H26.1156V27.7646H25.7603V23.8225H29.716Z" fill="#121420"/>
<path d="M25.2969 23.345V28.2263H30.1951V23.345H25.2969ZM27.9701 23.8223H29.7161V25.5624H27.9701V23.8223ZM27.5065 27.7644H25.7604V26.0243H27.5065V27.7644ZM27.5065 25.5624H25.7604V23.8223H27.5065V25.5624ZM29.7161 27.7644H27.9701V26.0243H29.7161V27.7644Z" fill="white"/>
<path d="M22.9484 23.823H18.9927V27.765H22.9484V23.823Z" fill="#BADBED"/>
<path opacity="0.13" d="M22.9484 26.7179V27.765H18.9927V23.823H19.5644C19.5644 23.823 19.5489 23.8384 19.5489 23.8538C19.3944 24.1618 19.3172 24.5005 19.3172 24.8547C19.3172 26.1174 20.3524 27.1337 21.6195 27.1337C22.0831 27.1337 22.5157 26.9951 22.8866 26.7641C22.902 26.7487 22.9175 26.7333 22.9484 26.7179Z" fill="#121420"/>
<path opacity="0.35" d="M24.1347 22.9745L23.9673 22.7932L14.6657 31.322L14.8331 31.5033L24.1347 22.9745Z" fill="white"/>
<path opacity="0.35" d="M15.9493 31.0239L16.6816 31.8171L25.9832 23.2884L25.2508 22.4952L15.9493 31.0239Z" fill="white"/>
<path opacity="0.35" d="M24.384 21.6683L24.1224 21.385L14.8209 29.9138L15.0824 30.1971L24.384 21.6683Z" fill="white"/>
<path opacity="0.21" d="M22.9484 23.823V24.1464H19.3481V27.765H18.9927V23.823H22.9484Z" fill="#121420"/>
<path d="M18.5291 23.3455V28.2268H23.4273V23.3455H18.5291ZM21.2022 23.8228H22.9483V25.5628H21.2022V23.8228ZM20.7387 27.7648H18.9926V26.0248H20.7387V27.7648ZM20.7387 25.5628H18.9926V23.8228H20.7387V25.5628ZM22.9483 27.7648H21.2022V26.0248H22.9483V27.7648Z" fill="white"/>
<path d="M36.5612 30.5059H32.6055V34.4479H36.5612V30.5059Z" fill="#BADBED"/>
<path opacity="0.13" d="M36.5612 33.4008V34.4479H32.6055V30.5059H33.1772C33.1772 30.5059 33.1617 30.5213 33.1617 30.5367C33.0072 30.8446 32.93 31.1834 32.93 31.5376C32.93 32.8002 33.9652 33.8165 35.2323 33.8165C35.6959 33.8165 36.1285 33.678 36.4994 33.447C36.5148 33.4316 36.5457 33.4162 36.5612 33.4008Z" fill="#121420"/>
<path opacity="0.35" d="M37.7574 29.6667L37.59 29.4854L28.2884 38.0141L28.4558 38.1954L37.7574 29.6667Z" fill="white"/>
<path opacity="0.35" d="M29.5678 37.706L30.3002 38.4993L39.6017 29.9705L38.8694 29.1773L29.5678 37.706Z" fill="white"/>
<path opacity="0.35" d="M37.9962 28.3485L37.7346 28.0652L28.4331 36.594L28.6946 36.8773L37.9962 28.3485Z" fill="white"/>
<path opacity="0.21" d="M36.5612 30.5059V30.8292H32.9609V34.4325H32.6055V30.5059H36.5612Z" fill="#121420"/>
<path d="M32.142 30.0288V34.9102H37.0402V30.0288H32.142ZM34.8152 30.5062H36.5612V32.2308H34.8152V30.5062ZM34.3516 34.4328H32.6055V32.6928H34.3516V34.4328ZM34.3516 32.2308H32.6055V30.4908H34.3516V32.2308ZM36.5612 34.4328H34.8152V32.6928H36.5612V34.4328Z" fill="white"/>
<path d="M29.716 30.5056H25.7603V34.4476H29.716V30.5056Z" fill="#BADBED"/>
<path opacity="0.13" d="M29.716 33.4005V34.4476H25.7603V30.5056H26.332C26.332 30.5056 26.3165 30.521 26.3165 30.5364C26.162 30.8444 26.0847 31.1832 26.0847 31.5373C26.0847 32.8 27.12 33.8163 28.3871 33.8163C28.8506 33.8163 29.2833 33.6777 29.6541 33.4467C29.6696 33.4313 29.685 33.4159 29.716 33.4005Z" fill="#121420"/>
<path opacity="0.35" d="M30.9007 29.6564L30.7333 29.4751L21.4317 38.0039L21.5991 38.1852L30.9007 29.6564Z" fill="white"/>
<path opacity="0.35" d="M22.7186 37.7043L23.4509 38.4976L32.7525 29.9688L32.0201 29.1756L22.7186 37.7043Z" fill="white"/>
<path opacity="0.35" d="M31.15 28.3502L30.8884 28.0669L21.5869 36.5957L21.8484 36.8789L31.15 28.3502Z" fill="white"/>
<path opacity="0.21" d="M29.716 30.5056V30.829H26.1156V34.4323H25.7603V30.5056H29.716Z" fill="#121420"/>
<path d="M25.2966 30.0286V34.9099H30.1949V30.0286H25.2966ZM27.9698 30.5059H29.7159V32.2306H27.9698V30.5059ZM27.5063 34.4326H25.7602V32.6925H27.5063V34.4326ZM27.5063 32.2306H25.7602V30.4905H27.5063V32.2306ZM29.7159 34.4326H27.9698V32.6925H29.7159V34.4326Z" fill="white"/>
<path d="M22.9479 30.5059H18.9922V34.4479H22.9479V30.5059Z" fill="#BADBED"/>
<path opacity="0.13" d="M22.9479 33.4008V34.4479H18.9922V30.5059H19.5639C19.5639 30.5059 19.5485 30.5213 19.5485 30.5367C19.3939 30.8446 19.3167 31.1834 19.3167 31.5376C19.3167 32.8003 20.352 33.8166 21.619 33.8166C22.0826 33.8166 22.5152 33.678 22.8861 33.447C22.9015 33.4316 22.917 33.4162 22.9479 33.4008Z" fill="#121420"/>
<path opacity="0.35" d="M24.1324 29.6567L23.965 29.4753L14.6634 38.0041L14.8308 38.1854L24.1324 29.6567Z" fill="white"/>
<path opacity="0.35" d="M15.95 37.7034L16.6824 38.4966L25.9839 29.9678L25.2516 29.1746L15.95 37.7034Z" fill="white"/>
<path opacity="0.35" d="M24.3817 28.3504L24.1201 28.0671L14.8185 36.5959L15.0801 36.8792L24.3817 28.3504Z" fill="white"/>
<path opacity="0.21" d="M22.9479 30.5059V30.8292H19.3476V34.4325H18.9922V30.5059H22.9479Z" fill="#121420"/>
<path d="M18.5287 30.0281V34.9094H23.427V30.0281H18.5287ZM21.2019 30.5054H22.948V32.2301H21.2019V30.5054ZM20.7383 34.4321H18.9922V32.692H20.7383V34.4321ZM20.7383 32.2301H18.9922V30.49H20.7383V32.2301ZM22.948 34.4321H21.2019V32.692H22.948V34.4321Z" fill="white"/>
<path d="M33.2787 52.942V44.1033H22.6786V52.942H33.2787Z" fill="#BADBED"/>
<path opacity="0.13" d="M33.2702 51.6935V52.9408H22.6702V44.1021H23.7827C23.3501 44.8874 23.1183 45.7805 23.1183 46.7198C23.1183 49.9997 26.0541 52.6637 29.6699 52.6637C31.0142 52.6637 32.2349 52.3095 33.2702 51.6935Z" fill="#121420"/>
<g opacity="0.57">
<path opacity="0.35" d="M34.2324 44.8491L33.5524 44.1125L23.6595 53.1835L24.3396 53.9201L34.2324 44.8491Z" fill="white"/>
<path opacity="0.35" d="M32.4553 43.5647L32.0996 43.1794L22.2067 52.2504L22.5625 52.6357L32.4553 43.5647Z" fill="white"/>
<path opacity="0.35" d="M35.4779 46.8194L35.1222 46.4341L25.2293 55.505L25.585 55.8903L35.4779 46.8194Z" fill="white"/>
<path opacity="0.35" d="M30.7846 43.4634L30.6067 43.2708L20.7138 52.3417L20.8917 52.5343L30.7846 43.4634Z" fill="white"/>
<path opacity="0.35" d="M30.0317 42.1965L28.8285 40.8933L18.9356 49.9643L20.1388 51.2674L30.0317 42.1965Z" fill="white"/>
</g>
<path opacity="0.41" d="M33.2702 44.4716H28.5574V44.6872V52.9408H28.2174V44.4716H23.041V52.9408H22.6702V44.1021H33.2702V44.4716Z" fill="#121420"/>
<path d="M22.1757 43.6091V53.4488H33.7646V43.6091H22.1757ZM22.6701 52.9407V44.1019H27.7229V52.9407H22.6701ZM33.2702 52.9407H28.2174V44.1019H33.2702V52.9407Z" fill="white"/>
<path d="M34.1044 52.1697H21.8356V53.5248H34.1044V52.1697Z" fill="white"/>
<path opacity="0.15" d="M34.1043 53.0935H21.8354V53.4323H34.1043V53.0935Z" fill="#121420"/>
<path d="M35.0935 53.4333H20.8622V55.081H35.0935V53.4333Z" fill="white"/>
<path opacity="0.15" d="M35.0933 54.4338H20.8621V55.0806H35.0933V54.4338Z" fill="#121420"/>
<path d="M51.3239 52.9808H40.4985C40.3614 52.5711 40.334 52.0932 40.4711 51.6699C40.7725 50.7413 41.7866 50.3316 42.458 50.8505C42.321 50.1814 42.5539 49.4167 43.0061 49.007C43.4584 48.611 44.1024 48.5973 44.5683 48.9797C44.6642 49.0616 44.7464 49.1435 44.8561 49.1435C44.9931 49.1435 45.089 48.9933 45.1849 48.8841C45.7468 48.2013 46.8293 48.1603 47.213 49.007C47.2678 49.1435 47.3226 49.2938 47.4323 49.362C47.5282 49.4167 47.6378 49.3893 47.7474 49.362C48.2681 49.2255 48.8437 49.1435 49.2959 49.4986C49.8577 49.9219 50.0358 50.8505 50.1044 51.6699C50.1181 51.8064 50.1318 51.9566 50.2277 52.0386C50.2825 52.0795 50.3373 52.0795 50.4058 52.0932C50.8032 52.1478 51.1732 52.5029 51.3239 52.9808Z" fill="#8BAA3D"/>
<path d="M17.6417 53.1854H6.11741C5.96668 52.7348 5.93927 52.2158 6.0763 51.7652C6.39148 50.7683 7.47402 50.304 8.18659 50.8776C8.04955 50.1402 8.28251 49.3072 8.77582 48.8838C9.25543 48.4469 9.95429 48.4332 10.4339 48.8565C10.5298 48.9385 10.6257 49.0477 10.7491 49.0341C10.8861 49.0341 11.0094 48.8838 11.1054 48.7473C11.7083 48.0099 12.8594 47.9552 13.2567 48.8838C13.3253 49.0341 13.3664 49.1979 13.4897 49.2662C13.5856 49.3345 13.7089 49.2935 13.8186 49.2662C14.3667 49.116 14.9833 49.0341 15.4766 49.4164C16.0796 49.8807 16.2714 50.8776 16.3399 51.7789C16.3536 51.9291 16.3674 52.0929 16.4633 52.1749C16.5181 52.2158 16.5866 52.2158 16.6551 52.2295C17.0936 52.2705 17.491 52.6665 17.6417 53.1854Z" fill="#8BAA3D"/>
<path d="M20.7657 50.4272H20.3271V53.0628H20.7657V50.4272Z" fill="#5E1726"/>
<path d="M20.4917 50.7276C21.5664 50.7276 22.4376 49.8594 22.4376 48.7885C22.4376 47.7175 21.5664 46.8494 20.4917 46.8494C19.4171 46.8494 18.5459 47.7175 18.5459 48.7885C18.5459 49.8594 19.4171 50.7276 20.4917 50.7276Z" fill="#8BAA3D"/>
<path opacity="0.09" d="M22.4244 48.7883C22.4244 49.8671 21.5474 50.7274 20.4786 50.7274C19.5605 50.7274 18.7794 50.0856 18.5739 49.239C18.9164 49.5394 19.3549 49.7169 19.8482 49.7169C20.9308 49.7169 21.7941 48.8429 21.7941 47.7778C21.7941 47.6276 21.7804 47.4637 21.7393 47.3271C22.1641 47.6685 22.4244 48.1875 22.4244 48.7883Z" fill="#121420"/>
<path d="M21.2313 52.4341H19.861V53.7724H21.2313V52.4341Z" fill="#1BBA85"/>
<path d="M21.437 52.2437H19.6693V52.626H21.437V52.2437Z" fill="#1BBA85"/>
<path opacity="0.09" d="M21.2313 52.5974V53.7718H19.861V53.4168C19.998 53.4987 20.135 53.5533 20.2995 53.5533C20.7517 53.567 21.1353 53.1573 21.2313 52.5974Z" fill="#121420"/>
<path d="M37.5795 50.427H37.141V53.0626H37.5795V50.427Z" fill="#5E1726"/>
<path d="M37.3056 50.7274C38.3802 50.7274 39.2514 49.8592 39.2514 48.7882C39.2514 47.7173 38.3802 46.8491 37.3056 46.8491C36.2309 46.8491 35.3597 47.7173 35.3597 48.7882C35.3597 49.8592 36.2309 50.7274 37.3056 50.7274Z" fill="#8BAA3D"/>
<path opacity="0.09" d="M39.2384 48.7881C39.2384 49.8669 38.3614 50.7272 37.2926 50.7272C36.3744 50.7272 35.5934 50.0854 35.3878 49.2387C35.7304 49.5391 36.1689 49.7167 36.6622 49.7167C37.7448 49.7167 38.6081 48.8427 38.6081 47.7775C38.6081 47.6273 38.5944 47.4635 38.5532 47.3269C38.9643 47.6683 39.2384 48.1872 39.2384 48.7881Z" fill="#121420"/>
<path d="M38.0454 52.4338H36.675V53.7721H38.0454V52.4338Z" fill="#1BBA85"/>
<path d="M38.2509 52.2434H36.4832V52.6258H38.2509V52.2434Z" fill="#1BBA85"/>
<path opacity="0.09" d="M38.0454 52.5972V53.7716H36.675V53.4165C36.8121 53.4984 36.9491 53.5531 37.1136 53.5531C37.5658 53.5667 37.9494 53.1571 38.0454 52.5972Z" fill="#121420"/>
</g>
</svg>
