<svg width="56" height="56" viewBox="0 0 56 56" fill="none" xmlns="http://www.w3.org/2000/svg">
<circle cx="27.7368" cy="27.7473" r="27.2842" fill="#DCF5EE"/>
<mask id="mask0_3_5117" style="mask-type:alpha" maskUnits="userSpaceOnUse" x="0" y="0" width="56" height="56">
<circle cx="27.7368" cy="27.7473" r="27.2842" fill="#E2F5F0"/>
</mask>
<g mask="url(#mask0_3_5117)">
<path d="M-0.822876 46.5737V50.6803C-0.822876 52.3288 0.513506 53.665 2.16184 53.665H6.8295C8.47798 53.665 9.81422 52.3286 9.81422 50.6803V46.5737H-0.822876Z" fill="#64798A"/>
<path d="M31.2574 0.463135H7.31867C1.69238 0.463135 -2.86841 5.02407 -2.86841 10.6502V48.3479H39.9523V9.15794C39.9522 4.35596 36.0595 0.463135 31.2574 0.463135Z" fill="#44C4A1"/>
<path d="M29.8591 4.98071H8.72095V9.20841H29.8591V4.98071Z" fill="#D5D6DB"/>
<path d="M7.3589 43.0769C9.61855 43.0769 11.4504 41.2451 11.4504 38.9855C11.4504 36.7258 9.61855 34.894 7.3589 34.894C5.09926 34.894 3.26746 36.7258 3.26746 38.9855C3.26746 41.2451 5.09926 43.0769 7.3589 43.0769Z" fill="#FCD462"/>
<path d="M42.3864 17.3149H39.9523V29.3157H42.3864C43.8287 29.3157 44.998 28.1465 44.998 26.7041V19.9265C44.9981 18.4843 43.8289 17.3149 42.3864 17.3149Z" fill="#3EA69B"/>
<path d="M34.7675 14.8013H3.26794V31.8475H34.7675V14.8013Z" fill="#F6C358"/>
<path d="M3.26819 31.8465V14.8H34.7701L3.26819 31.8465Z" fill="#FCD462"/>
<path d="M25.4969 50.1228V52.2319C25.4969 53.7785 26.7507 55.0321 28.2973 55.0321H30.3337C31.8802 55.0321 33.134 53.7783 33.134 52.2319V50.1228H25.4969Z" fill="#64798A"/>
<path d="M44.1343 50.1223V52.2315C44.1343 53.778 45.3881 55.0316 46.9346 55.0316H48.971C50.5176 55.0316 51.7714 53.7779 51.7714 52.2315V50.1223H44.1343Z" fill="#64798A"/>
<path d="M55.4139 39.2793H52.2939V42.1432H55.4139C55.9878 42.1432 56.4531 41.6779 56.4531 41.1039V40.3186C56.4533 39.7446 55.988 39.2793 55.4139 39.2793Z" fill="#1BBA85"/>
<path d="M22.3768 39.2797C21.8028 39.2797 21.3375 39.745 21.3375 40.319V41.1042C21.3375 41.6781 21.8028 42.1434 22.3768 42.1434H25.4969V39.2795H22.3768V39.2797Z" fill="#1BBA85"/>
<path d="M44.6698 29.9382H33.0529C28.5786 29.9382 24.9515 33.5654 24.9515 38.0396V50.9394H52.7713V38.0396C52.7713 33.5653 49.1443 29.9382 44.6698 29.9382Z" fill="#1EC28A"/>
<path d="M28.0422 40.4374H49.7253C49.7253 40.4374 50.6101 35.7612 46.4177 32.2489C46.0956 31.9791 45.6781 31.8459 45.2579 31.8459H32.725C32.2318 31.8459 31.7632 32.041 31.4123 32.3874C30.1408 33.6428 27.2949 36.9149 28.0422 40.4374Z" fill="#1BBA85"/>
<path d="M29.8601 4.98071H19.0186V9.20841H29.8601V4.98071Z" fill="#E1E6E9"/>
<path d="M28.0422 40.4374C27.2949 36.9147 30.1408 33.6428 31.4125 32.3874C31.7634 32.041 32.2321 31.8459 32.7252 31.8459H45.2581C45.6783 31.8459 46.0957 31.9791 46.4179 32.2489L28.0422 40.4374Z" fill="#1BBA85"/>
<path d="M31.2155 47.4488C32.5264 47.4488 33.589 46.3861 33.589 45.0752C33.589 43.7643 32.5264 42.7017 31.2155 42.7017C29.9046 42.7017 28.8419 43.7643 28.8419 45.0752C28.8419 46.3861 29.9046 47.4488 31.2155 47.4488Z" fill="#FCD462"/>
<path d="M45.5806 47.4471C46.8915 47.4471 47.9542 46.3844 47.9542 45.0735C47.9542 43.7626 46.8915 42.7 45.5806 42.7C44.2697 42.7 43.207 43.7626 43.207 45.0735C43.207 46.3844 44.2697 47.4471 45.5806 47.4471Z" fill="#FCD462"/>
</g>
</svg>
