<svg width="55" height="56" viewBox="0 0 55 56" fill="none" xmlns="http://www.w3.org/2000/svg">
<path d="M27.2842 55.0316C42.3121 55.0316 54.5684 42.7747 54.5684 27.7473C54.5684 12.7195 42.3121 0.463135 27.2842 0.463135C12.2564 0.463135 0 12.72 0 27.7473C0 42.7747 12.2569 55.0316 27.2842 55.0316Z" fill="#1BBA85"/>
<path d="M27.2841 14.0667C40.6209 14.0667 51.4316 24.8777 51.4316 38.2141C51.4316 39.0515 51.3887 39.8785 51.306 40.6937C46.695 49.2306 37.6674 55.0309 27.2841 55.0309C16.9007 55.0309 7.8736 49.2311 3.26257 40.6942C3.17933 39.879 3.1366 39.0515 3.1366 38.2142C3.1366 24.8773 13.9482 14.0667 27.2841 14.0667Z" fill="#3C5B5F"/>
<path d="M42.3711 19.3617C46.8615 22.9597 50.0391 28.127 51.0704 34.0336C50.9975 33.9219 50.9232 33.7751 50.8484 33.5576C50.3768 33.7121 50.3615 33.7249 49.8048 33.8175L49.7801 33.8515C49.5587 34.1671 49.7914 34.0337 49.4021 34.3625C48.9389 34.7523 48.6371 35.2845 48.1192 35.6001C48.0567 36.1514 48.165 36.2755 48.0262 36.9311C47.972 37.1729 47.7013 37.8227 47.3842 37.7734C47.2838 37.7547 46.8585 36.7023 46.7581 36.4113C46.5878 35.9162 46.3948 35.5508 46.2712 34.9813C46.2019 34.6775 46.1551 34.0957 46.0857 33.8914C45.7534 33.9406 45.7682 34.1518 45.4511 33.9288C45.2271 33.7673 45.328 33.6689 45.2035 33.4271C44.9411 33.1796 44.6704 32.932 44.4001 32.6843C44.1909 32.6164 43.3871 32.7335 43.0464 32.6965C42.436 32.6404 42.3823 32.6778 42.0191 32.189C41.3767 32.2206 41.4313 32.4612 40.8046 31.9227C40.395 31.5761 40.4723 31.0189 39.8771 31.3345C39.8545 31.842 40.1016 31.9542 40.3256 32.189C40.4876 32.3687 40.689 32.4922 40.7736 32.7334C40.7815 32.7403 40.8204 32.9687 40.8283 32.9998C41.4081 33.0372 41.5469 32.759 41.864 32.5238C42.1736 32.8142 41.8719 32.8644 42.3204 33.0928C42.6758 33.2729 42.6064 33.1676 42.8377 33.458C42.9539 33.8479 42.0422 34.9068 41.7399 35.0987C41.5081 35.2474 41.385 35.1608 41.1758 35.3331C40.8666 35.594 41.2147 35.5566 40.6737 35.7545C40.0938 35.9652 39.5213 36.4107 38.9109 36.4481C38.7795 36.0883 38.6481 35.724 38.5166 35.3588C38.1297 34.1144 38.1453 34.5973 37.7506 33.9533C37.565 33.6742 37.6423 33.495 37.5188 33.2474C37.4331 33.0619 37.3026 32.9811 37.186 32.7527C37.0084 32.3997 36.8001 31.8489 36.39 31.9046C36.3048 32.1827 36.7686 33.1239 36.8842 33.3527C37.0004 33.5821 37.1859 33.6811 37.2401 34.0094C37.3173 34.4607 37.2248 34.4047 37.4719 34.7079C37.9903 35.3326 37.4487 35.2218 38.2531 35.8342C38.8556 36.293 38.7016 36.4288 38.9565 37.0422C39.3509 37.1529 40.5259 36.6277 40.7262 36.7822C40.9659 37.209 40.4485 37.8898 40.3171 38.2615C39.8839 39.5059 39.1263 39.4876 38.5464 40.4407C38.2299 40.9551 38.0827 41.023 37.7888 41.6422C37.4561 42.3417 38.4612 44.2793 37.8588 45.091C37.7273 45.2762 37.302 45.3879 36.7689 45.9515C36.2042 46.564 36.7841 46.4591 36.5675 47.48C36.3978 47.7153 36.189 47.7276 35.9803 47.8954C35.903 48.1362 35.9651 48.3276 35.8331 48.6255C35.6938 48.9844 35.6711 48.7924 35.4694 49.0838C35.3227 49.3122 35.3384 49.4052 35.1681 49.6159C35.0214 49.8084 34.9436 49.8631 34.8053 49.9876C34.1323 50.6068 32.6866 50.625 32.5631 50.5384C32.2224 50.248 32.4548 50.1736 32.37 49.7651C32.2873 49.4057 32.0969 49.1049 31.9379 48.8278L31.9217 48.7992C31.8448 48.6633 31.775 48.5329 31.7361 48.4088C31.4575 47.5297 31.5584 46.8622 31.0716 45.9702C30.4607 44.8183 31.4113 44.2183 31.3724 43.5679C31.3571 43.3946 31.2955 43.2893 31.2793 43.1529C31.1637 42.4347 31.0947 41.7912 30.6152 41.2277C30.089 40.6152 30.1588 40.8314 30.3287 39.8227C30.5449 38.665 30.0506 38.9618 29.3545 38.9312C29.0139 37.8793 28.3488 38.3921 27.6843 38.7023C27.2664 38.8938 27.1123 38.6466 26.6403 38.7145C25.5887 38.8568 26.4162 39.3091 25.0088 38.1947C24.4211 37.73 24.8154 37.9654 24.4679 37.3835C24.3522 37.1727 23.9962 36.8947 23.8333 36.6834C23.3002 36.015 23.9342 35.34 23.8412 34.5726C23.6787 33.1485 23.4468 34.3866 24.2434 32.6656C24.6613 31.7495 25.2949 31.7436 25.4579 31.3346C25.5972 30.9697 25.5041 30.7094 25.7671 30.3751C25.9989 30.1029 26.3317 30.1586 26.4631 29.7313C26.6487 29.2051 26.2928 29.1377 25.9064 29.1243C25.7444 28.5735 25.7443 28.7093 25.8674 28.2018C25.9374 27.9168 25.8753 27.7804 25.9374 27.4959C26.0919 26.7841 27.3058 27.4901 27.6539 27.1986C27.8159 26.8953 27.8395 26.5985 27.6539 26.307C27.4599 26.0161 27.2054 26.053 27.074 25.7749C27.3679 25.577 27.1513 25.7503 27.4063 25.6942C27.7076 25.6263 27.6687 25.5391 28.0246 25.4717C28.3421 25.4091 28.5434 25.1187 28.8521 24.9209C29.2927 24.6359 29.0839 24.3814 29.6175 24.2957C30.4756 24.1466 29.9188 24.1716 30.0123 23.3727C30.1433 23.3235 30.2668 23.2669 30.3903 23.2118C30.6611 23.5647 30.321 23.4225 30.6454 23.6573C30.7305 23.608 30.8309 23.5588 30.924 23.5095C30.8772 23.1251 30.7 23.1994 30.5838 22.7234C30.1584 22.7913 30.0039 23.1502 29.6638 23.0202C29.3315 22.8967 29.3158 22.4197 29.3315 22.0234C29.455 21.7266 30.0733 21.5656 30.3125 21.4908C30.7 21.3609 30.6453 21.101 31.0007 20.7475C31.4649 20.2834 31.1242 20.7539 31.3487 20.1539C31.8592 20.1347 31.6194 20.1165 31.9207 19.962L31.9359 19.9561L31.967 19.9433C32.1452 19.8626 32.377 19.8444 32.6089 19.7641C33.4591 19.4796 33.807 19.6219 34.4253 19.8749C34.9048 20.0732 36.3506 20.0792 36.4588 20.6866C36.1113 21.0509 35.779 20.7851 35.2759 20.8165C35.3684 21.2866 35.4069 21.2866 35.8327 21.4165C35.9026 21.1936 35.8017 21.2807 35.9178 21.1379C36.0571 21.169 36.1964 21.1936 36.3353 21.2192C36.4751 20.7421 36.637 20.8105 37.1092 20.7545C37.0314 20.4261 36.9462 20.5191 37.124 20.2593C37.6118 20.3095 37.217 20.2662 37.4567 20.6561C37.7969 20.6123 38.1297 20.2347 38.6008 20.1855C38.8946 20.1544 38.8794 20.2661 39.2963 20.2223C39.6365 20.1855 39.6207 20.0614 39.9619 20.2041C40.085 19.9747 39.9619 19.9806 40.2632 19.9255C40.7264 19.8448 41.129 20.1293 41.5771 20.1918C41.2453 19.7838 40.9278 19.8635 41.3378 19.1828C41.8557 19.0775 41.9019 19.1517 42.1264 19.5421C42.2534 19.4707 42.3076 19.3989 42.3706 19.3624L42.3711 19.3617ZM16.3663 52.7578C15.5619 52.4063 14.7782 52.017 14.0167 51.5926C14.0073 51.561 13.999 51.5266 13.9916 51.4867C13.8759 50.7991 14.1698 50.7247 13.8444 49.5792C13.6312 48.8216 13.7169 47.0268 13.4914 46.1067C13.4555 45.9601 13.4111 45.8355 13.3575 45.7405C13.1488 45.3945 12.6383 45.2335 12.2293 44.9544C12.2056 44.949 12.1904 44.9421 12.183 44.9298C11.6184 44.5335 11.0848 42.9794 10.6364 42.3981C10.4281 42.119 10.2967 42.2425 10.2036 41.8035C10.1032 41.4013 10.2578 41.4697 10.3897 41.1345C9.70155 39.8719 11.2787 39.8901 10.9544 38.3734C10.8845 38.0948 10.6841 37.7049 10.5138 37.5818C10.1889 37.7241 10.3429 37.8038 10.1732 38.0765C9.91077 37.9279 9.64794 37.7788 9.3929 37.631C8.59644 36.8631 9.02126 37.4199 8.79776 36.9188C8.31826 35.8663 7.86147 36.455 7.28946 35.9347C7.03399 35.7176 6.98773 35.377 6.56291 35.4396C5.92098 35.5262 6.27643 35.6251 5.61191 35.315C5.04725 35.0486 4.46 34.7396 4.06523 34.3802C4.04999 33.823 4.25132 33.7978 3.90323 33.2785C3.84174 33.182 3.77225 33.0924 3.7019 33.0067C4.78976 28.0569 7.39486 23.6768 11.0061 20.3787C11.2867 20.4766 11.6578 20.4121 11.9364 20.4008C12.0364 20.2153 12.0984 20.0538 12.2766 19.9858C12.346 19.9612 12.4311 19.9553 12.5469 19.9612C12.5621 20.0533 12.5858 20.1468 12.6089 20.2394C12.6089 20.2463 12.6247 20.3078 12.6168 20.2955C12.6247 20.2828 12.632 20.3324 12.6394 20.3506C13.1272 20.0661 12.7172 20.0597 12.9796 19.5458C12.57 19.4651 12.6242 19.5142 12.3687 19.2544C12.6168 18.9822 13.0952 18.8891 13.4512 18.9142C13.4276 19.1623 13.3119 19.1559 13.4054 19.3661C13.6836 19.1928 13.877 18.7291 14.3249 18.8153C14.4101 18.8768 14.511 18.9329 14.6035 18.9886C14.3712 19.2051 14.0237 19.2179 13.7224 19.3416C13.5904 20.6854 14.1477 19.5587 13.9616 20.4811C14.2939 20.4565 14.6188 20.2148 14.7423 19.9672C14.6188 19.8062 14.4406 19.8062 14.3406 19.6142C14.4184 19.3666 14.5848 19.179 14.8201 19.0673C14.9791 18.992 15.1692 18.9517 15.3848 18.9517C17.8431 18.9705 16.6754 19.0816 17.4335 19.4287C17.6033 19.5026 17.9046 19.5404 18.0055 19.6887C18.1601 19.924 18.0134 20.1464 18.2606 20.3325C18.4772 20.4935 18.5082 20.3261 18.7942 20.6859C18.7327 20.8897 18.5855 21.1004 18.2842 21.1068C17.8668 21.1127 18.1139 20.8277 17.6655 20.8715C17.6739 21.2918 18.0908 21.4533 17.7038 21.6822C17.3636 21.887 17.5798 21.6084 17.3253 21.7507C17.3174 21.7571 17.2942 21.7694 17.2869 21.7758C17.2716 21.7881 17.2559 21.8068 17.248 21.8191C17.2022 21.8688 17.1628 21.9121 17.1249 21.9559C16.5066 21.7881 16.6228 21.8629 16.2511 21.4543C16.1124 21.2997 16.0891 21.2623 15.8416 21.281C15.687 21.2868 15.4861 21.3548 15.3389 21.2189C15.6407 20.8413 15.7879 21.2067 16.2284 20.9832C16.3057 20.9458 16.7926 20.5687 16.8704 20.4815C16.739 20.1842 16.8546 20.4313 16.6621 20.2398C16.2289 19.8007 16.1044 19.9114 15.5181 19.9114C15.2429 20.228 15.0371 20.6193 14.7374 20.7911C14.5562 20.8951 14.3411 20.9186 14.0566 20.797C14.188 21.3297 14.5282 20.9211 14.5587 21.5645C14.3346 21.5212 14.2185 21.4094 13.9867 21.4902C13.4915 21.6757 13.9325 21.6571 13.9709 21.7565C13.9709 21.7629 14.2027 21.7875 13.9709 21.8742C13.7154 21.9667 13.932 21.8245 13.4378 21.5336C13.5072 21.41 13.5771 21.28 13.6465 21.1501C13.2448 21.2742 12.7417 21.4721 12.2706 21.7009C11.7366 21.9672 11.2344 22.271 10.9326 22.5491C10.9248 23.0137 11.0099 22.7036 11.0567 23.2555C11.7754 23.2983 11.5436 23.5143 12.2628 23.7192C12.4011 23.7571 12.5797 23.794 12.7964 23.8309C12.7964 24.1779 12.4868 24.4378 12.7028 24.7972C13.2054 25.1492 13.2207 24.4625 13.3447 24.0234C15.0465 23.6679 14.2264 23.1679 14.666 22.2316C14.732 22.0917 14.8254 21.9426 14.9604 21.7816C15.0914 21.788 15.6249 21.8441 15.7411 21.8682C16.1279 21.9361 15.9193 22.0292 16.3367 22.2148C16.3288 22.5496 16.1591 22.9827 16.6537 22.9025C17.0327 22.835 16.9481 22.5372 17.4113 22.4628C17.6195 22.9521 17.5658 23.1628 17.6584 23.7506C18.772 24.1843 18.2767 24.5368 18.0601 25.3486C18.1999 25.4165 18.3462 25.4785 18.4934 25.5401C18.486 25.7754 18.4776 26.0048 18.4702 26.2341C18.4471 26.2341 17.279 25.9796 17.2022 25.9555C17.3798 25.4475 17.7048 25.4416 17.9135 24.9218C17.496 24.9957 17.5266 25.1256 17.2253 25.2186C16.955 25.2993 16.7463 25.2433 16.4603 25.2807C16.3599 25.6145 16.4524 24.9893 16.4839 25.416C16.4992 25.5775 16.577 25.423 16.4681 25.5957C16.0813 25.416 16.2131 24.9951 15.4939 25.385C15.6563 25.4593 15.8183 25.5273 15.9886 25.5957C15.9661 26.0717 15.9271 25.7128 15.8266 26.029C15.5791 26.8397 16.4991 26.3381 16.7389 26.2953C16.6768 26.7226 16.414 26.7226 16.0428 26.8397C15.6337 26.9638 15.5097 27.1311 15.1847 27.2055C15.1847 26.6974 15.1079 27.1248 15.3314 26.7722C15.0065 26.8027 14.7667 26.9514 14.4576 27.0819L14.4272 27.0937C14.0299 27.2557 13.9698 27.2798 13.9241 27.7873C13.5839 27.8922 13.1897 28.0108 12.9499 28.2584C12.7106 28.4873 12.4704 28.7157 12.238 28.9387C12.2154 28.9574 12.1991 28.9761 12.1848 28.9884C12.27 29.6259 12.1848 29.6383 11.7974 29.8868C11.473 30.0965 11.3647 30.0906 11.0634 30.3569C10.0971 31.2238 10.5613 30.8206 10.6145 32.3132C10.4137 32.2517 10.2207 32.1833 10.0351 32.1153C9.88796 31.1243 10.0888 31.4532 9.29282 31.2237C8.43433 30.9761 8.54997 31.397 8.19463 31.4713C7.80029 31.5574 7.60685 31.1119 7.03484 31.4836C6.7183 31.6997 6.41658 31.8424 6.33931 32.2259C6.2468 32.6906 6.03801 33.0302 6.0686 33.5447C6.12327 34.9383 7.39081 35.018 7.71567 34.3682C7.93181 33.935 7.87809 33.6998 8.58151 33.811C8.6509 34.1827 8.54261 34.4549 8.44957 34.74C8.38807 34.9069 8.21776 35.2101 8.30292 35.44C8.80554 35.6443 8.82078 35.2599 9.48584 35.6561C9.53263 36.3182 9.18454 37.0611 9.69452 37.4451C10.0883 37.736 10.112 37.4761 10.4595 37.4146C10.8464 37.3467 10.777 37.5879 11.1329 37.6439C11.3337 37.3958 11.2485 37.5514 11.3805 37.2471C11.6123 36.7219 11.6739 36.969 12.2232 36.6475C12.2768 36.6165 12.3232 36.585 12.3778 36.5481C12.4392 36.678 12.5092 36.8021 12.5702 36.9257C12.9725 36.4492 13.0187 36.9134 13.4829 37.0434C13.6827 37.098 13.8245 37.1176 13.9342 37.1191C14.2714 37.124 14.3059 36.9601 14.7662 37.1231C14.8209 37.1487 14.8902 37.1669 14.9523 37.1856C14.9596 37.1856 14.9828 37.1979 14.9828 37.2108C14.9912 37.2172 15.0138 37.2354 15.0217 37.2423C15.0989 37.3285 15.1073 37.4156 15.1688 37.5082C15.4858 37.8114 15.8029 38.1151 16.1121 38.4119C16.7224 38.6537 16.7224 38.2012 17.4185 38.8757C17.7123 39.1543 17.5805 39.1488 17.7429 39.5073C17.7666 39.5634 17.8129 39.6185 17.8433 39.6869C17.9054 39.8543 17.9747 40.0148 18.0447 40.1757C18.3612 40.5907 18.7943 40.3308 19.2349 40.7581C19.49 41.0056 19.297 40.9314 19.8611 41.0303C20.7348 41.1726 20.3952 41.0923 21.0598 41.5939C21.3148 41.7794 21.3763 41.6741 21.616 41.835C21.9488 42.2992 21.8636 42.8009 21.5855 43.2095C20.727 44.4599 21.0209 44.2556 20.982 45.2464C20.951 45.8154 20.7885 46.992 20.2549 47.1343C18.3148 47.6797 19.4432 48.0572 18.9332 49.0167C18.7866 49.2894 18.6777 49.3573 18.5852 49.5744C18.1993 50.4776 18.4696 50.7814 17.325 50.5771C17.4339 50.7686 17.3639 50.6386 17.4722 50.8119C17.8124 51.3381 17.8666 51.7348 17.1705 51.8638C16.5906 51.9755 16.8382 51.8638 16.784 52.5076C16.5596 52.6007 16.4592 52.5076 16.3124 52.6563L16.3671 52.7582L16.3663 52.7578ZM11.2708 20.1419C11.4205 20.1221 11.4199 20.0572 11.8118 19.9622C11.7808 19.8322 11.7571 19.8322 11.7267 19.783L11.7144 19.7584C11.5653 19.8844 11.417 20.0129 11.2708 20.1424V20.1419ZM31.9366 27.3211L31.9213 27.3103C31.8672 27.2734 31.8135 27.2364 31.7672 27.1931C31.427 26.8894 31.3567 26.6177 30.9787 26.6856C30.9702 26.9706 31.0097 26.9824 31.1484 27.1685C31.6742 27.8247 31.5118 27.6022 31.9212 27.8434L31.9365 27.8522C32.0335 27.9078 32.1457 27.9856 32.2998 28.0973C31.7741 28.5605 32.2614 28.6103 31.9365 28.7654L31.9212 28.7727C31.8897 28.7846 31.8597 28.7973 31.8366 28.8096C31.7278 28.5369 31.9676 28.6673 31.6894 28.2711C31.5349 28.0668 31.3881 28.0047 31.1484 27.8925C30.5449 27.6079 30.6227 27.3855 30.2516 27.0138C29.8337 27.0265 29.9271 27.1565 29.6333 27.3051C29.2779 27.4779 29.332 27.2747 28.9141 27.311C28.5739 27.9121 29.0608 27.4104 28.4425 27.9056C27.7002 28.481 28.3111 29.0816 27.1208 29.2618C27.0357 29.2741 27.0046 29.2618 26.92 29.2923C26.695 29.3726 26.8264 29.3046 26.695 29.4346C26.796 29.6703 26.6567 29.6325 27.0588 29.6886C27.7932 29.787 27.8863 29.3356 28.4199 29.2239C28.6823 29.1682 30.3294 29.0998 30.4451 29.1308C30.8006 29.5276 30.5071 29.8062 30.5071 30.14C30.8946 30.3443 31.4429 30.394 31.6674 30.6047C31.9224 30.8459 31.7988 30.8085 31.9224 30.8519L31.9377 30.8568C31.9844 30.8701 32.0519 30.8942 32.17 30.9389C32.4792 31.0438 32.4634 31.1059 32.7956 31.1305C33.0973 30.1213 32.7877 30.2267 34.2414 30.6904C35.7566 31.1866 35.0762 30.7342 35.7181 30.8021C36.0356 30.8336 35.9505 30.932 36.3911 30.8764C36.4757 30.7031 37.1018 29.1303 36.2901 29.3288C36.0504 29.3902 36.2133 29.4769 35.8727 29.3902C35.5172 29.2982 35.8574 29.2297 35.4636 29.2849C35.0762 29.3411 34.613 29.6817 34.3112 28.5116C34.1955 28.0902 33.9863 27.7255 33.5073 28.3624C33.6309 28.579 33.716 28.5977 33.8549 28.8084C33.8165 28.8699 33.6851 29.025 33.6388 29.0748C33.3764 29.3347 33.7476 29.2111 33.3218 29.2663C33.09 29.093 33.1367 28.87 32.9122 28.5608C32.5179 27.9844 32.7729 28.2512 32.572 27.6999C32.414 27.5611 32.1517 27.4572 31.9374 27.3209H31.9366V27.3211ZM40.1938 43.9886C39.8541 44.1619 39.8073 44.5587 39.5524 44.7811C39.2742 45.0351 38.9026 44.9179 38.7948 45.3881C38.6555 45.9759 39.0266 45.7967 38.6172 46.5641C38.4705 46.8486 38.4626 47.5604 38.6871 47.7716C39.3591 48.4209 39.7228 46.7812 39.8774 46.2672C39.9935 45.902 40.1018 45.4875 40.2253 45.1463C40.3489 44.7812 40.5266 44.4598 40.1938 43.9886ZM39.0808 26.7155C39.1349 27.4716 39.5829 27.7621 39.9004 28.1086C39.862 28.468 39.7763 28.375 39.7842 28.8761C40.1632 29.1493 40.4408 29.3157 40.9366 29.1803C41.006 28.5733 40.8126 28.6038 40.6275 28.1893C40.6585 28.1397 40.7431 28.078 40.7584 28.0658C40.8983 27.8802 40.8284 28.1397 40.8983 27.8241C40.535 27.7069 39.9473 27.3348 39.9014 26.8464C40.0791 26.7041 40.025 26.7903 40.156 26.7041C40.442 26.5181 40.2259 26.8026 40.3957 26.487C40.249 26.2025 40.0865 26.1528 39.7311 26.2951C39.5766 26.3571 39.1665 26.6481 39.0813 26.716L39.0808 26.7155ZM35.9185 26.914C35.6792 26.5802 35.694 26.4123 35.2303 26.4001C35.0452 26.5984 34.8286 26.8952 34.7282 27.1986C34.5737 27.6568 34.682 27.3408 34.6972 27.8365C34.6893 27.8548 34.6972 27.8803 34.6972 27.8986C34.6893 28.1954 34.6194 27.8424 34.6662 28.1151C35.0299 28.0403 34.7519 28.0467 35.0226 27.9601C35.2776 27.8734 36.0583 27.6381 36.2828 27.6943C36.8159 27.8178 37.2644 28.2392 37.8678 27.8178C37.8363 27.2792 37.187 27.0749 36.7386 26.8392C36.7623 26.3444 36.8931 26.7343 36.8621 26.2574C36.7076 26.251 36.6145 26.2263 36.4678 26.2884C36.1198 26.4429 36.3133 26.4867 36.3133 26.5424C36.3285 26.8082 36.6612 26.4867 36.3059 26.8151C36.2055 26.9012 36.0425 26.9012 35.919 26.914H35.9185ZM26.8879 23.1624C26.8731 24.0293 27.1744 23.7378 27.4599 24.1656C27.329 24.5309 27.3054 24.2463 27.1592 24.6234C27.0278 24.9394 27.1897 24.6549 27.1045 25.2052C27.329 25.218 27.6613 25.1377 27.9551 25.1127C28.373 25.0753 28.3647 25.0384 28.5119 24.611C28.2801 24.3265 28.0482 24.0415 27.8085 23.7569C27.5062 23.2981 27.8085 23.6142 27.716 23.2302C27.6466 23.0939 27.584 22.9584 27.5225 22.8216C27.1203 22.9586 27.1592 22.9212 26.8879 23.1624Z" fill="#15BDB1"/>
<path d="M42.1688 21.6279L41.935 21.394L40.9711 20.4301L40.7373 20.1963C39.9767 20.4848 39.0246 21.7317 38.649 22.5183L38.7658 22.6355L39.7297 23.5994L39.8468 23.7165C40.6334 23.3404 41.8803 22.3888 42.1688 21.6283V21.6279Z" fill="#FBB429"/>
<path d="M43.7827 26.2106L43.5489 25.9768L42.585 25.0129L42.3511 24.7791C41.5906 25.0676 40.6385 26.3144 40.2629 27.1011L40.3801 27.2182L41.344 28.1821L41.4611 28.2993C42.2478 27.9232 43.4946 26.9716 43.7831 26.2106H43.7827Z" fill="#FBB429"/>
<path d="M43.7828 26.2107L43.549 25.9774L42.5851 25.0131L42.3513 24.7798C42.1755 24.8463 41.9904 24.9638 41.8033 25.1155L43.447 26.7592C43.5981 26.5725 43.7162 26.387 43.7827 26.2112V26.2107H43.7828Z" fill="white"/>
<path d="M26.0401 8.46973L26.274 8.70356L27.2383 9.66746L27.4716 9.90129C27.4051 10.077 27.2875 10.2626 27.1364 10.4492L25.4923 8.80545C25.6788 8.65379 25.8644 8.53613 26.0401 8.46973Z" fill="white"/>
<path d="M22.6165 30.1977L25.4446 34.2185L26.3464 33.1281L24.7461 28.9C24.9469 28.7267 24.5694 29.0703 25.3953 28.327C26.2213 27.5838 29.8509 24.2472 33.1382 21.5746L42.6059 34.9583L43.4693 34.0949L38.2361 17.4136C40.375 15.6503 42.03 14.2439 42.4759 13.7343C43.8389 12.1768 45.072 10.0995 44.0989 8.15259C42.1515 7.17888 40.0747 8.41253 38.5171 9.77504C38.0071 10.2211 36.6013 11.876 34.8379 14.0149L18.1566 8.78183L17.2932 9.64523L30.6764 19.113C28.0044 22.4008 24.6674 26.0297 23.9245 26.8558C23.1807 27.6818 23.5249 27.3043 23.3516 27.5051L19.1235 25.9047L18.0331 26.8066L22.0539 29.6347C21.6172 30.3858 21.8659 30.6345 22.617 30.1978H22.6165V30.1977Z" fill="white"/>
<path d="M22.6163 30.2001L25.4444 34.2209L25.6619 33.9581L22.9205 29.9905L22.6168 30.2002H22.6163V30.2001Z" fill="#C8CACC"/>
<path d="M18.2955 26.5901L18.0327 26.8077L22.0535 29.6358L22.2633 29.3321L18.2951 26.5901H18.2955Z" fill="#C8CACC"/>
<path d="M33.1385 21.5762L42.6063 34.9599L42.939 34.6266L33.6978 21.1199L33.1385 21.5762Z" fill="#C8CACC"/>
<path d="M17.6255 9.31396L17.2927 9.64724L30.676 19.115L31.1323 18.5558L17.6249 9.3145L17.6255 9.31396Z" fill="#C8CACC"/>
<path d="M19.701 32.8202L19.7044 32.8168L19.7615 32.7617L19.8181 32.707L19.8756 32.6514L19.9332 32.5957L19.9908 32.5401L20.0488 32.4839L20.1069 32.4278L20.1655 32.3716L20.2246 32.315L20.2832 32.2584L20.3423 32.2013L20.4013 32.1437L20.4609 32.0862L20.5205 32.0281L20.5805 31.97L20.641 31.9119L20.7015 31.8533L20.7621 31.7947L20.8231 31.7356L20.8842 31.6761L20.9457 31.6165L21.0072 31.5569L21.0687 31.4968L21.1307 31.4363L21.1928 31.3757L21.2553 31.3147L21.3179 31.2536L21.3809 31.1921L21.4439 31.1301L21.5068 31.068L21.1549 30.7097L21.0919 30.7712L21.0294 30.8327L20.9668 30.8938L20.9042 30.9553L20.8422 31.0158L20.7807 31.0763L20.7192 31.1365L20.6577 31.1965L20.5967 31.256L20.5356 31.3151L20.4745 31.3741L20.414 31.4332L20.3534 31.4918L20.2929 31.5504L20.2329 31.6085L20.1729 31.6666L20.1133 31.7241L20.0537 31.7813L19.9947 31.8388L19.9357 31.8959L19.8766 31.9525L19.818 32.0091L19.7594 32.0653L19.7013 32.1215L19.6432 32.1771L19.5851 32.2327L19.5276 32.2884L19.4704 32.3435L19.4133 32.3991L19.3562 32.4538L19.3528 32.4572L19.7013 32.819L19.701 32.8202ZM47.8456 32.6129L47.786 32.7685L47.7264 32.9221L47.6669 33.0732L47.6073 33.2219L47.5473 33.3685L47.4872 33.5127L47.4272 33.655L47.3672 33.7949L47.307 33.9327L47.2465 34.068L47.1865 34.2019L47.126 34.3333L47.0654 34.4623L47.0049 34.5893L47.0019 34.5952L47.4533 34.8162L47.4577 34.8074L47.5198 34.6769L47.5818 34.5445L47.6433 34.4101L47.7053 34.2738L47.7668 34.1355L47.8283 33.9947L47.8898 33.852L47.9509 33.7067L48.012 33.5601L48.0735 33.4104L48.134 33.2588L48.1951 33.1052L48.2556 32.9492L48.3161 32.7907L47.8465 32.6125L47.8456 32.6129ZM46.3014 35.9062L46.2703 35.9573L46.2089 36.0587L46.1474 36.1581L46.0859 36.2561L46.0238 36.3516L45.9618 36.4452L45.8998 36.5372L45.8377 36.6273L45.7757 36.7159L45.7137 36.8025L45.6517 36.8877L45.5891 36.9709L45.5271 37.0527L45.4645 37.1324L45.4019 37.2106L45.339 37.2874L45.2764 37.3623L45.2138 37.4356L45.1513 37.507L45.0883 37.5773L45.0257 37.6458L44.9627 37.7127L44.8997 37.7781L44.8368 37.8421L44.8259 37.853L45.1778 38.2118L45.193 38.1966L45.2605 38.1281L45.3274 38.0582L45.3944 37.9868L45.4613 37.9139L45.5278 37.8396L45.5943 37.7639L45.6603 37.6861L45.7263 37.6068L45.7922 37.5255L45.8582 37.4434L45.9236 37.3592L45.9891 37.2735L46.0545 37.1863L46.1195 37.0972L46.1846 37.0062L46.2496 36.9137L46.314 36.8191L46.3791 36.7231L46.443 36.6252L46.5075 36.5257L46.5714 36.4244L46.6359 36.321L46.6999 36.2157L46.7303 36.164L46.2997 35.9051L46.3014 35.9062ZM43.6954 38.7564L43.6939 38.7574L43.6294 38.7963L43.5649 38.8342L43.5005 38.8707L43.436 38.9062L43.371 38.9406L43.3065 38.9735L43.2415 39.006L43.1765 39.037L43.1115 39.0671L43.0464 39.0962L42.981 39.1242L42.9156 39.1513L42.8501 39.1774L42.7847 39.203L42.7187 39.2271L42.6527 39.2507L42.5868 39.2733L42.5208 39.295L42.4543 39.3162L42.3878 39.3359L42.3209 39.3551L42.2543 39.3738L42.1874 39.3911L42.1205 39.4078L42.053 39.4236L41.9856 39.4389L41.9181 39.4531L41.8502 39.4669L41.7823 39.4797L41.7144 39.4919L41.646 39.5038L41.5776 39.5146L41.5091 39.525L41.4402 39.5348L41.4362 39.5353L41.5002 40.034L41.5086 40.0325L41.5825 40.0222L41.6558 40.0113L41.7287 39.9995L41.802 39.9872L41.8754 39.9739L41.9487 39.9601L42.0216 39.9453L42.0945 39.9295L42.1668 39.9133L42.2397 39.8961L42.3126 39.8779L42.3855 39.8587L42.4584 39.8389L42.5303 39.8183L42.6026 39.7966L42.6745 39.774L42.7463 39.7504L42.8187 39.7258L42.8905 39.7002L42.9619 39.6736L43.0338 39.646L43.1052 39.6175L43.1766 39.588L43.248 39.5569L43.3194 39.525L43.3903 39.492L43.4611 39.458L43.532 39.4231L43.6029 39.3866L43.6738 39.3492L43.7441 39.3103L43.8144 39.2705L43.8848 39.2296L43.9547 39.1873L43.9562 39.1864L43.6938 38.7581L43.6954 38.7564ZM39.966 39.6193H39.9576L39.8852 39.6188L39.8123 39.6178L39.7394 39.6168L39.6661 39.6153L39.5928 39.6139L39.5194 39.6119L39.4456 39.61L39.3717 39.6076L39.2974 39.6051L39.2231 39.6027L39.1488 39.6002L39.0746 39.5972L38.9997 39.5942L38.9244 39.5918L38.849 39.5888L38.7737 39.5858L38.6983 39.5824L38.623 39.5794L38.5472 39.5764L38.4714 39.5735L38.3951 39.5705L38.3188 39.5675L38.2425 39.5645L38.1657 39.5615L38.0888 39.5585L38.0115 39.5556L37.9343 39.5531L37.857 39.5507L37.7792 39.5482L37.7014 39.5458L37.6236 39.5438L37.5454 39.5419L37.4671 39.5404L37.4593 39.5399L37.4504 40.0425H37.4573L37.5342 40.044L37.611 40.0459L37.6879 40.0478L37.7642 40.0503L37.841 40.0527L37.9179 40.0552L37.9942 40.0576L38.0705 40.0606L38.1468 40.0636L38.2231 40.0666L38.2989 40.0696L38.3747 40.0726L38.4504 40.0756L38.5262 40.0785L38.602 40.0815L38.6778 40.0845L38.7535 40.0875L38.8293 40.0905L38.9051 40.0935L38.9805 40.0964L39.0558 40.0994L39.1316 40.1024L39.2064 40.1049L39.2818 40.1073L39.3571 40.1098L39.4325 40.1117L39.5078 40.1136L39.5832 40.1155L39.658 40.117L39.7328 40.1185L39.8076 40.1195L39.8824 40.1204L39.9573 40.121H39.9657L39.9676 39.6183L39.966 39.6193ZM35.9274 39.5745L35.8624 39.5794L35.7806 39.5864L35.6979 39.5937L35.6162 39.6016L35.5335 39.61L35.4508 39.6194L35.3681 39.6292L35.2854 39.6395L35.2021 39.6504L35.1189 39.6627L35.0352 39.6755L34.9516 39.6892L34.8679 39.703L34.7842 39.7182L34.7 39.734L34.6158 39.7502L34.5312 39.7674L34.4466 39.7857L34.362 39.8048L34.2768 39.825L34.1916 39.8462L34.106 39.8678L34.0208 39.89L33.9351 39.9137L33.8494 39.9383L33.7637 39.9639L33.6776 39.9904L33.5915 40.018L33.5049 40.0466L33.4182 40.0766L33.4069 40.0806L33.5772 40.5537L33.5841 40.5512L33.6659 40.5232L33.7471 40.4966L33.8283 40.4705L33.9095 40.4454L33.9907 40.4217L34.072 40.3981L34.1526 40.3759L34.2333 40.3543L34.314 40.3336L34.3947 40.3139L34.4749 40.2947L34.5552 40.277L34.6354 40.2597L34.7152 40.2435L34.7949 40.2277L34.8751 40.2129L34.9549 40.1992L35.0346 40.1854L35.1143 40.1726L35.1936 40.1608L35.2733 40.1495L35.3526 40.1386L35.4319 40.1288L35.5112 40.1195L35.59 40.1106L35.6687 40.1022L35.748 40.0943L35.8263 40.0874L35.905 40.081L35.97 40.0761L35.9306 39.575L35.9274 39.5745ZM31.9942 40.718L31.9273 40.7554L31.8382 40.8066L31.7491 40.8592L31.66 40.9128L31.5703 40.9685L31.4812 41.0251L31.3916 41.0832L31.3025 41.1422L31.2129 41.2033L31.1232 41.2653L31.0332 41.3292L30.9431 41.3947L30.8535 41.4616L30.7634 41.5295L30.6734 41.5994L30.5833 41.6708L30.4927 41.7437L30.4021 41.818L30.3115 41.8938L30.2205 41.9711L30.1295 42.0508L30.0389 42.1315L29.9479 42.2136L29.9253 42.2348L30.2679 42.6025L30.2871 42.5853L30.3747 42.5056L30.4623 42.4278L30.5495 42.352L30.6367 42.2777L30.7234 42.2048L30.8105 42.1334L30.8967 42.0635L30.9833 41.9956L31.0694 41.9291L31.1555 41.8636L31.2417 41.7997L31.3273 41.7377L31.413 41.6771L31.4987 41.6175L31.5839 41.56L31.669 41.5034L31.7542 41.4483L31.8393 41.3947L31.924 41.3425L32.0086 41.2913L32.0928 41.2416L32.177 41.1929L32.2439 41.1555L31.9954 40.7184L31.9942 40.718ZM28.8546 43.329L28.8458 43.3384L28.7532 43.4437L28.6632 43.547L28.5731 43.6489L28.4831 43.7499L28.3934 43.8493L28.3038 43.9478L28.2142 44.0448L28.1251 44.1403L28.036 44.2348L27.9474 44.3284L27.8588 44.4205L27.7703 44.5115L27.6821 44.6011L27.594 44.6897L27.5058 44.7769L27.4182 44.863L27.3306 44.9481L27.2434 45.0318L27.1563 45.1145L27.1395 45.1297L27.4817 45.4974L27.5004 45.4802L27.59 45.3955L27.6797 45.3099L27.7693 45.2232L27.8589 45.1351L27.949 45.0454L28.0391 44.9548L28.1291 44.8628L28.2197 44.7703L28.3103 44.6762L28.4013 44.5813L28.4919 44.4848L28.5829 44.3869L28.674 44.288L28.7655 44.188L28.8571 44.0867L28.9486 43.9838L29.0407 43.8799L29.1328 43.775L29.2224 43.6726L29.2313 43.6632L28.8551 43.3299L28.8546 43.329ZM26.0147 46.102L25.9542 46.1497L25.8705 46.2151L25.7863 46.2796L25.7026 46.3431L25.619 46.4057L25.5357 46.4672L25.453 46.5272L25.3703 46.5862L25.2876 46.6443L25.2054 46.7015L25.1233 46.7576L25.0411 46.8127L24.9594 46.8669L24.8781 46.9201L24.7969 46.9717L24.7157 47.0225L24.635 47.0727L24.5544 47.1214L24.4737 47.1691L24.394 47.2159L24.3142 47.2617L24.2345 47.3065L24.1552 47.3508L24.0759 47.3937L23.9972 47.4356L23.9592 47.4553L24.1896 47.9023L24.2315 47.8806L24.3142 47.8363L24.3969 47.7915L24.4796 47.7457L24.5629 47.6985L24.6461 47.6508L24.7294 47.6021L24.813 47.5519L24.8967 47.5011L24.9809 47.4494L25.0651 47.3962L25.1497 47.3426L25.2343 47.2875L25.319 47.2314L25.4041 47.1742L25.4893 47.1162L25.575 47.0571L25.6606 46.997L25.7463 46.9355L25.8325 46.8729L25.9186 46.8094L26.0047 46.7449L26.0913 46.6795L26.1785 46.6126L26.2652 46.5447L26.3252 46.4969L26.0146 46.1016L26.0147 46.102ZM22.6122 48.0321L22.5462 48.0537L22.4723 48.0774L22.3985 48.1L22.3252 48.1222L22.2523 48.1434L22.1794 48.1635L22.107 48.1827L22.0346 48.2015L21.9628 48.2191L21.8914 48.2359L21.82 48.2517L21.7486 48.2669L21.6777 48.2812L21.6073 48.2949L21.537 48.3077L21.4667 48.32L21.3973 48.3313L21.3279 48.3416L21.2585 48.3514L21.1896 48.3603L21.1211 48.3687L21.0527 48.376L20.9848 48.383L20.9169 48.3888L20.849 48.3937L20.7821 48.3982L20.7152 48.4016L20.6482 48.4046L20.5817 48.407L20.5158 48.4085L20.4503 48.4095H20.3849L20.3194 48.409L20.255 48.408L20.2298 48.407L20.2116 48.9091L20.2426 48.9101L20.3129 48.9116L20.3833 48.9121H20.4542L20.5256 48.9112L20.597 48.9092L20.6684 48.9068L20.7402 48.9038L20.8131 48.8993L20.8855 48.8944L20.9584 48.889L21.0313 48.8826L21.1046 48.8757L21.1785 48.8673L21.2523 48.8584L21.3266 48.8486L21.4005 48.8383L21.4753 48.8274L21.5501 48.8151L21.6255 48.8018L21.7008 48.7885L21.7766 48.7737L21.8524 48.7584L21.9281 48.7422L22.0045 48.725L22.0813 48.7067L22.1581 48.688L22.235 48.6683L22.3123 48.6476L22.3901 48.626L22.4679 48.6034L22.5457 48.5802L22.6239 48.5561L22.7021 48.531L22.7681 48.5094L22.613 48.0314L22.6122 48.0321ZM18.804 48.1881L18.7794 48.1812L18.7218 48.1645L18.6647 48.1468L18.6071 48.1286L18.55 48.1098L18.4929 48.0901L18.4363 48.0704L18.3807 48.0502L18.3245 48.029L18.2689 48.0074L18.2138 47.9852L18.1587 47.9626L18.104 47.9395L18.0498 47.9158L17.9957 47.8917L17.9421 47.8666L17.8889 47.8414L17.8357 47.8158L17.7825 47.7897L17.7303 47.7632L17.6786 47.7361L17.6264 47.7081L17.5747 47.6801L17.5236 47.6511L17.4728 47.622L17.4221 47.5925L17.3714 47.562L17.3217 47.5315L17.2719 47.5005L17.2227 47.4689L17.1734 47.437L17.1247 47.4045L17.076 47.372L17.0283 47.3385L16.9805 47.305L16.9328 47.2706L16.8856 47.2362L16.8388 47.2012L16.7925 47.1657L16.7463 47.1302L16.7004 47.0943L16.6798 47.0776L16.3632 47.468L16.3869 47.4872L16.4361 47.5261L16.4858 47.5644L16.5356 47.6024L16.5863 47.6403L16.637 47.6777L16.6882 47.7142L16.7399 47.7506L16.7921 47.7865L16.8443 47.8215L16.897 47.8565L16.9502 47.8909L17.0033 47.9249L17.057 47.9589L17.1111 47.9918L17.1652 48.0243L17.2203 48.0563L17.2754 48.0878L17.3311 48.1189L17.3872 48.1493L17.4434 48.1794L17.5 48.2089L17.5571 48.2379L17.6143 48.2659L17.6718 48.294L17.7299 48.3216L17.788 48.3481L17.8466 48.3742L17.9056 48.3998L17.9652 48.4249L18.0243 48.4496L18.0843 48.4737L18.1448 48.4973L18.2053 48.5199L18.2664 48.5425L18.3279 48.5641L18.3894 48.5854L18.4514 48.6055L18.514 48.6252L18.5766 48.6444L18.6395 48.6632L18.6642 48.6701L18.804 48.1872V48.1881ZM15.6496 46.0537L15.6289 46.0281L15.5925 45.9828L15.556 45.9375L15.5205 45.8917L15.485 45.8454L15.4501 45.7992L15.4156 45.7529L15.3812 45.7061L15.3472 45.6589L15.3137 45.6117L15.2803 45.5645L15.2478 45.5167L15.2153 45.469L15.1833 45.4207L15.1517 45.3724L15.1202 45.3237L15.0897 45.275L15.0592 45.2258L15.0292 45.1765L14.9997 45.1273L14.9701 45.0776L14.941 45.028L14.9125 44.9778L14.8844 44.9281L14.8568 44.8779L14.8292 44.8272L14.8022 44.777L14.7756 44.7262L14.7491 44.6755L14.7235 44.6243L14.6979 44.5736L14.6728 44.5225L14.6482 44.4708L14.6241 44.4191L14.6004 44.3674L14.5773 44.3157L14.5542 44.264L14.5316 44.2123L14.5094 44.1601L14.4878 44.1084L14.4666 44.0562L14.4453 44.0039L14.4281 43.9601L13.96 44.1418L13.9787 44.1895L14.0009 44.2451L14.0235 44.3008L14.0466 44.3564L14.0703 44.4115L14.094 44.4666L14.1186 44.5222L14.1437 44.5773L14.1693 44.6324L14.1949 44.6871L14.221 44.7418L14.2475 44.7965L14.2746 44.8511L14.3022 44.9053L14.3298 44.9594L14.3578 45.013L14.3869 45.0666L14.416 45.1198L14.4456 45.1734L14.4756 45.2266L14.5061 45.2798L14.5371 45.3325L14.5681 45.3851L14.6001 45.4378L14.6321 45.49L14.664 45.5417L14.697 45.5939L14.7299 45.6456L14.7634 45.6973L14.7974 45.7484L14.8318 45.7992L14.8668 45.8499L14.9022 45.9006L14.9377 45.9508L14.9742 46.001L15.0106 46.0508L15.0475 46.1005L15.0849 46.1497L15.1223 46.1989L15.1603 46.2476L15.1986 46.2964L15.2375 46.3451L15.2588 46.3706L15.6486 46.0537H15.6496ZM14.0301 42.5577C13.8848 41.7602 13.8613 40.9563 14.0365 40.1613L13.5457 40.0531C13.3538 40.9012 13.3803 41.7971 13.5359 42.6483L14.0301 42.5572V42.5577ZM14.513 38.7972C14.8542 38.0731 15.3617 37.3765 15.8668 36.7588L15.4794 36.4389C14.9517 37.0763 14.4146 37.828 14.0611 38.5778L14.513 38.7972ZM16.8552 35.6423L16.8586 35.6389L16.9015 35.5936L16.9443 35.5483L16.9876 35.503L17.0314 35.4572L17.0752 35.4113L17.119 35.3655L17.1633 35.3197L17.2081 35.2734L17.2528 35.2272L17.2976 35.1809L17.3429 35.1347L17.3887 35.0879L17.4346 35.0411L17.4808 34.9943L17.5271 34.9475L17.5739 34.9003L17.6211 34.8525L17.6683 34.8048L17.7155 34.7576L17.7633 34.7098L17.811 34.6621L17.8597 34.6138L17.9084 34.5655L17.9571 34.5173L18.0064 34.4685L18.0556 34.4198L18.1053 34.3711L18.155 34.3219L18.2052 34.2727L18.2554 34.2234L18.3062 34.1737L18.3569 34.1241L18.4081 34.0744L18.4592 34.0242L18.5109 33.974L18.5626 33.9238L18.6148 33.8731L18.6182 33.8701L18.2677 33.5098L18.2643 33.5132L18.2121 33.5639L18.1598 33.6146L18.1081 33.6648L18.0565 33.7156L18.0053 33.7652L17.9541 33.8154L17.9034 33.8651L17.8527 33.9148L17.8025 33.9644L17.7523 34.0137L17.7021 34.0629L17.6523 34.1121L17.6031 34.1608L17.5538 34.2101L17.5051 34.2588L17.4564 34.3071L17.4077 34.3558L17.36 34.4041L17.3122 34.4518L17.2645 34.5001L17.2172 34.5478L17.17 34.5956L17.1232 34.6433L17.0765 34.6905L17.0302 34.7378L16.9839 34.785L16.9377 34.8322L16.8919 34.879L16.8466 34.9258L16.8013 34.9726L16.7565 35.0193L16.7117 35.0661L16.6674 35.1124L16.6236 35.1582L16.5793 35.2045L16.5355 35.2507L16.4922 35.2966L16.4888 35.3005L16.855 35.6446V35.6423H16.8552Z" fill="white"/>
</svg>
