<svg width="60" height="60" viewBox="0 0 60 60" fill="none" xmlns="http://www.w3.org/2000/svg">
<circle cx="29.9036" cy="29.9198" r="28.756" stroke="#7A869A" stroke-opacity="0.1"/>
<path d="M25.7241 28.1062H35.187V32.8376H25.7241V28.1062Z" fill="#172B4D"/>
<path d="M42.4237 26.6868H41.8119V33.7839H42.4237C43.1307 33.7829 43.7038 33.1486 43.7045 32.3654V28.1048C43.7036 27.3219 43.1305 26.6875 42.4237 26.6868Z" fill="#172B4D"/>
<path d="M39.0852 23.8481H36.6067V37.0961H39.0852C39.8065 37.0952 40.3912 36.4695 40.3918 35.6974V25.2469C40.3912 24.4748 39.8065 23.8491 39.0852 23.8481Z" fill="#172B4D"/>
<path d="M20.52 25.2469V35.6974C20.5207 36.4695 21.1053 37.0954 21.8266 37.0961H24.3052V23.8481H21.8266C21.1053 23.8491 20.5207 24.4748 20.52 25.2469Z" fill="#172B4D"/>
<path d="M17.208 28.105V32.3654C17.2087 33.1486 17.7818 33.7829 18.4888 33.7839H19.1006V26.6868H18.4888C17.7818 26.6875 17.2089 27.3221 17.208 28.105Z" fill="#172B4D"/>
</svg>
