<svg width="32" height="32" viewBox="0 0 32 32" fill="none" xmlns="http://www.w3.org/2000/svg">
<path d="M16 29.7142C23.5742 29.7142 29.7143 23.5741 29.7143 15.9999C29.7143 8.42574 23.5742 2.28564 16 2.28564C8.4258 2.28564 2.28571 8.42574 2.28571 15.9999C2.28571 23.5741 8.4258 29.7142 16 29.7142Z" stroke="#1BBA85" stroke-width="3" stroke-linecap="round" stroke-linejoin="round"/>
<path d="M12.12 11.9998C12.4335 11.1087 13.0522 10.3573 13.8666 9.87863C14.681 9.39999 15.6385 9.22503 16.5696 9.38473C17.5006 9.54443 18.3451 10.0285 18.9534 10.7512C19.5618 11.4738 19.8947 12.3885 19.8933 13.3331C19.8933 15.9998 15.8933 17.3331 15.8933 17.3331" stroke="#1BBA85" stroke-width="3" stroke-linecap="round" stroke-linejoin="round"/>
<path d="M16 22.6665H16.0129" stroke="#1BBA85" stroke-width="3" stroke-linecap="round" stroke-linejoin="round"/>
</svg>
