<svg width="60" height="60" viewBox="0 0 60 60" fill="none" xmlns="http://www.w3.org/2000/svg">
<circle cx="30.1836" cy="29.9198" r="28.756" stroke="#7A869A" stroke-opacity="0.1"/>
<g clip-path="url(#clip0_63_48)">
<path d="M19.6594 18.3281V24.7337H41.8122V18.3281H19.6594ZM26.6433 22.3049H21.8213V20.7035H26.6433V22.3049ZM36.5276 22.3316H34.3924V20.7302H36.5276V22.3316ZM39.7304 22.3316H37.5952V20.7302H39.7304V22.3316Z" fill="#172B4D"/>
<path d="M30.7625 38.8529C33.1908 38.8529 35.1664 36.8774 35.1664 34.449C35.1664 32.0207 33.1908 30.0452 30.7625 30.0452C28.3342 30.0452 26.3586 32.0207 26.3586 34.449C26.3586 36.8774 28.3342 38.8529 30.7625 38.8529Z" fill="#172B4D"/>
<path d="M19.6594 42.6162H41.8122V26.3352H19.6594V42.6162ZM30.7625 28.4437C34.0738 28.4437 36.7678 31.1377 36.7678 34.449C36.7678 37.7603 34.0738 40.4543 30.7625 40.4543C27.4512 40.4543 24.7572 37.7603 24.7572 34.449C24.7572 31.1377 27.4512 28.4437 30.7625 28.4437Z" fill="#172B4D"/>
</g>
<defs>
<clipPath id="clip0_63_48">
<rect width="24.288" height="24.288" fill="white" transform="translate(18.5918 18.3281)"/>
</clipPath>
</defs>
</svg>
