<svg width="31" height="33" viewBox="0 0 31 33" fill="none" xmlns="http://www.w3.org/2000/svg">
<path fill-rule="evenodd" clip-rule="evenodd" d="M0 16.9162C0 16.2589 0.532818 15.7261 1.19008 15.7261H21.8182C22.4754 15.7261 23.0083 16.2589 23.0083 16.9162C23.0083 17.5734 22.4754 18.1062 21.8182 18.1062H1.19008C0.532818 18.1062 0 17.5734 0 16.9162Z" fill="#1BBA85"/>
<path fill-rule="evenodd" clip-rule="evenodd" d="M14.6296 8.14105C15.0943 7.67629 15.8478 7.67629 16.3126 8.14105L24.1343 15.9627C24.661 16.4895 24.661 17.3434 24.1343 17.8702L16.3126 25.6918C15.8478 26.1566 15.0943 26.1566 14.6296 25.6918C14.1648 25.2271 14.1648 24.4736 14.6296 24.0088L21.7219 16.9164L14.6296 9.82408C14.1648 9.35932 14.1648 8.6058 14.6296 8.14105Z" fill="#1BBA85"/>
<path fill-rule="evenodd" clip-rule="evenodd" d="M21.157 2.10659C21.157 1.44932 21.6898 0.916504 22.347 0.916504H29.5933C30.3382 0.916504 30.9421 1.52037 30.9421 2.26526V31.5677C30.9421 32.3126 30.3382 32.9165 29.5933 32.9165H21.2892C20.6319 32.9165 20.0991 32.3837 20.0991 31.7264C20.0991 31.0692 20.6319 30.5363 21.2892 30.5363H28.5619V3.29667H22.347C21.6898 3.29667 21.157 2.76385 21.157 2.10659Z" fill="#1BBA85"/>
</svg>
