<svg width="21" height="19" viewBox="0 0 21 19" fill="none" xmlns="http://www.w3.org/2000/svg">
<path opacity="0.5" d="M10.5 19C10.1758 18.9996 9.85918 18.9036 9.5914 18.7244C5.62432 16.0847 3.90655 14.2747 2.95908 13.1432C0.939958 10.731 -0.0266976 8.25461 0.000560517 5.57284C0.0323617 2.49969 2.54768 0 5.60767 0C7.83274 0 9.37384 1.22857 10.2713 2.2518C10.2998 2.28388 10.3349 2.30961 10.3743 2.32725C10.4138 2.34488 10.4566 2.354 10.5 2.354C10.5434 2.354 10.5862 2.34488 10.6257 2.32725C10.6651 2.30961 10.7002 2.28388 10.7287 2.2518C11.6262 1.22758 13.1673 0 15.3923 0C18.4523 0 20.9676 2.49969 20.9994 5.57333C21.0267 8.2556 20.059 10.732 18.0409 13.1436C17.0934 14.2752 15.3757 16.0852 11.4086 18.7249C11.1408 18.9039 10.8242 18.9997 10.5 19Z" fill="#A5A7AC"/>
</svg>
