<svg width="59" height="60" viewBox="0 0 59 60" fill="none" xmlns="http://www.w3.org/2000/svg">
<circle cx="29.3436" cy="29.9198" r="28.756" stroke="#7A869A" stroke-opacity="0.1"/>
<path d="M25.6288 19.4321H21.0645V20.7906H24.6507L26.0092 24.8659H27.4355L25.6288 19.4321Z" fill="#172B4D"/>
<path d="M33.9699 33.6956C33.9699 33.043 33.832 32.3883 33.572 31.8033L33.5706 31.8019C33.2496 31.0849 33.182 30.2233 33.3703 29.3159C33.3979 29.1884 33.441 29.0671 33.4745 28.9412H24.9498C25.2121 29.9164 25.1675 30.9781 24.7779 31.9871C24.4596 32.8215 24.3773 33.7189 24.5392 34.5785C24.8783 36.4263 26.4184 38.0955 28.5362 38.3876V41.2576H25.1401V42.6161H33.2907V41.2576H29.8946V38.3856C32.3151 38.0336 33.9699 35.9889 33.9699 33.6956Z" fill="#172B4D"/>
<path d="M24.4879 27.5828H26.9195L26.0093 24.866H23.4827L24.4879 27.5828Z" fill="#172B4D"/>
<path d="M33.942 27.5828L34.9472 24.866H27.4351L28.3453 27.5828H33.942Z" fill="#172B4D"/>
<path d="M34.6485 20.7905C32.7591 20.7905 31.1371 21.9069 30.3708 23.5074H36.901L34.874 28.9591C34.801 29.1594 34.7453 29.3809 34.6976 29.6025C34.6468 29.8471 34.6429 30.0756 34.6439 30.3009C34.6476 30.3009 34.6514 30.3023 34.6551 30.3023C35.5505 30.3023 36.4221 30.0542 37.1969 29.5614C38.5778 28.6831 39.403 27.1821 39.403 25.5451C39.403 22.9237 37.2699 20.7905 34.6485 20.7905Z" fill="#172B4D"/>
</svg>
