<svg width="27" height="27" viewBox="0 0 27 27" fill="none" xmlns="http://www.w3.org/2000/svg">
<g id="Iconly/Light-Outline/Notification">
<g id="Notification">
<g id="Group 3">
<mask id="mask0_13_350" style="mask-type:alpha" maskUnits="userSpaceOnUse" x="3" y="1" width="22" height="20">
<path id="Clip 2" fill-rule="evenodd" clip-rule="evenodd" d="M3.37512 1.125H24.1842V20.6415H3.37512V1.125Z" fill="white"/>
</mask>
<g mask="url(#mask0_13_350)">
<path id="Fill 1" fill-rule="evenodd" clip-rule="evenodd" d="M13.778 2.8125C9.84614 2.8125 7.10564 5.89275 7.10564 8.65687C7.10564 10.9957 6.45651 12.0769 5.88276 13.0309C5.42264 13.797 5.05926 14.4022 5.05926 15.7174C5.24714 17.8391 6.64776 18.954 13.778 18.954C20.8689 18.954 22.3134 17.7896 22.5001 15.6442C22.4968 14.4022 22.1334 13.797 21.6733 13.0309C21.0995 12.0769 20.4504 10.9957 20.4504 8.65687C20.4504 5.89275 17.7099 2.8125 13.778 2.8125ZM13.778 20.6415C8.51751 20.6415 3.76326 20.2703 3.37514 15.7894C3.37176 13.9354 3.93764 12.9926 4.43714 12.1624C4.94226 11.3209 5.41814 10.5278 5.41814 8.65688C5.41814 5.01975 8.77739 1.125 13.778 1.125C18.7786 1.125 22.1379 5.01975 22.1379 8.65688C22.1379 10.5278 22.6138 11.3209 23.1189 12.1624C23.6184 12.9926 24.1843 13.9354 24.1843 15.7174C23.7916 20.2703 19.0385 20.6415 13.778 20.6415Z" fill="black"/>
</g>
</g>
<path id="Fill 4" fill-rule="evenodd" clip-rule="evenodd" d="M13.7231 25.3126H13.7209C12.4598 25.3114 11.2661 24.7557 10.3605 23.7466C10.0489 23.4012 10.077 22.8668 10.4235 22.5563C10.77 22.2436 11.3033 22.2717 11.6149 22.6193C12.1976 23.2684 12.9458 23.6251 13.722 23.6251H13.7231C14.5028 23.6251 15.2543 23.2684 15.8381 22.6182C16.1509 22.2728 16.6841 22.2447 17.0295 22.5563C17.376 22.8679 17.4041 23.4023 17.0925 23.7477C16.1835 24.7568 14.9876 25.3126 13.7231 25.3126Z" fill="black"/>
</g>
</g>
</svg>
