<svg width="59" height="60" viewBox="0 0 59 60" fill="none" xmlns="http://www.w3.org/2000/svg">
<circle cx="29.6236" cy="29.9198" r="28.756" stroke="#7A869A" stroke-opacity="0.1"/>
<path d="M31.1422 19.4321H24.3802C23.8678 19.4321 23.3764 19.6357 23.0141 19.998C22.6518 20.3603 22.4482 20.8517 22.4482 21.3641V40.6841H26.3122V32.9561H31.1422C32.9356 32.9561 34.6556 32.2437 35.9237 30.9756C37.1918 29.7075 37.9042 27.9875 37.9042 26.1941C37.9042 24.4007 37.1918 22.6808 35.9237 21.4127C34.6556 20.1446 32.9356 19.4321 31.1422 19.4321ZM31.1422 29.0921H26.3122V23.2961H31.1422C31.9108 23.2961 32.648 23.6015 33.1914 24.1449C33.7349 24.6884 34.0402 25.4255 34.0402 26.1941C34.0402 26.9627 33.7349 27.6998 33.1914 28.2433C32.648 28.7868 31.9108 29.0921 31.1422 29.0921Z" fill="#172B4D"/>
</svg>
