<svg width="32" height="32" viewBox="0 0 32 32" fill="none" xmlns="http://www.w3.org/2000/svg">
<path d="M13.4476 4.2925C14.0968 1.61669 17.9032 1.61669 18.5524 4.2925C18.6498 4.69448 18.8407 5.06778 19.1096 5.38202C19.3786 5.69627 19.7179 5.94257 20.1 6.10088C20.4821 6.25919 20.8962 6.32504 21.3086 6.29306C21.721 6.26109 22.12 6.1322 22.4731 5.91688C24.8244 4.4845 27.5169 7.17555 26.0846 9.52831C25.8695 9.88131 25.7409 10.2801 25.709 10.6922C25.6771 11.1042 25.7429 11.5181 25.901 11.8999C26.0591 12.2818 26.3051 12.621 26.619 12.8899C26.9329 13.1588 27.3058 13.3499 27.7074 13.4475C30.3832 14.0967 30.3832 17.9032 27.7074 18.5523C27.3054 18.6497 26.9321 18.8406 26.6179 19.1096C26.3037 19.3785 26.0574 19.7179 25.899 20.1C25.7407 20.4821 25.6749 20.8962 25.7069 21.3086C25.7388 21.7209 25.8677 22.1199 26.083 22.4731C27.5154 24.8243 24.8244 27.5169 22.4716 26.0845C22.1186 25.8695 21.7199 25.7408 21.3078 25.7089C20.8957 25.677 20.4819 25.7428 20.1 25.9009C19.7181 26.0591 19.3789 26.3051 19.11 26.6189C18.8411 26.9328 18.65 27.3057 18.5524 27.7074C17.9032 30.3832 14.0968 30.3832 13.4476 27.7074C13.3502 27.3054 13.1593 26.9321 12.8903 26.6178C12.6214 26.3036 12.2821 26.0573 11.8999 25.899C11.5178 25.7407 11.1037 25.6748 10.6914 25.7068C10.279 25.7388 9.87999 25.8677 9.52685 26.083C7.17561 27.5154 4.48304 24.8243 5.91542 22.4715C6.13043 22.1185 6.25912 21.7198 6.29101 21.3077C6.32291 20.8956 6.25712 20.4818 6.099 20.0999C5.94087 19.718 5.69486 19.3789 5.38098 19.1099C5.06709 18.841 4.69418 18.65 4.29256 18.5523C1.61675 17.9032 1.61675 14.0967 4.29256 13.4475C4.69454 13.3501 5.06784 13.1592 5.38209 12.8903C5.69633 12.6213 5.94263 12.282 6.10094 11.8999C6.25925 11.5178 6.3251 11.1037 6.29312 10.6913C6.26115 10.2789 6.13226 9.87993 5.91694 9.52679C4.48456 7.17555 7.17561 4.48298 9.52837 5.91536C11.0461 6.84183 13.027 6.02203 13.4476 4.2925Z" stroke="#1BBA85" stroke-width="3" stroke-linecap="round" stroke-linejoin="round"/>
<path d="M20.5714 16.0001C20.5714 17.2126 20.0898 18.3753 19.2325 19.2326C18.3752 20.0899 17.2124 20.5716 16 20.5716C14.7876 20.5716 13.6248 20.0899 12.7675 19.2326C11.9102 18.3753 11.4286 17.2126 11.4286 16.0001C11.4286 14.7877 11.9102 13.625 12.7675 12.7677C13.6248 11.9103 14.7876 11.4287 16 11.4287C17.2124 11.4287 18.3752 11.9103 19.2325 12.7677C20.0898 13.625 20.5714 14.7877 20.5714 16.0001V16.0001Z" stroke="#1BBA85" stroke-width="4" stroke-linecap="round" stroke-linejoin="round"/>
</svg>
