<svg width="18" height="18" viewBox="0 0 18 18" fill="none" xmlns="http://www.w3.org/2000/svg">
<path d="M14.3705 11.0213C14.1439 11.2392 14.0393 11.5608 14.0925 11.8667L14.8672 16.1546C14.9291 16.5206 14.781 16.8858 14.475 17.0958C14.1787 17.3137 13.7865 17.3399 13.4554 17.1656L9.5954 15.1524C9.45509 15.0826 9.30693 15.0382 9.15964 15.0382H8.92346C8.83631 15.0469 8.75874 15.0826 8.68815 15.1166L4.82731 17.1394C4.63558 17.2353 4.4177 17.2702 4.20853 17.2353C3.68562 17.1307 3.3466 16.6418 3.43288 16.1276L4.20853 11.8397C4.26082 11.5268 4.15624 11.2131 3.93052 10.9865L0.783457 7.93616C0.522001 7.67471 0.426134 7.29908 0.549018 6.95134C0.662316 6.61058 0.957761 6.35784 1.3238 6.2977L5.65526 5.66934C5.98644 5.63448 6.27404 5.4349 6.4222 5.13858L8.33083 1.22545C8.3744 1.1383 8.43541 1.05899 8.506 0.990142L8.58357 0.929136C8.61843 0.884688 8.67072 0.850699 8.72388 0.815838L8.81888 0.780977L8.96704 0.719971H9.33395C9.66512 0.754832 9.95273 0.95441 10.1009 1.24201L12.0348 5.13858C12.1742 5.42618 12.4444 5.61792 12.7582 5.66934L17.0896 6.2977C17.4556 6.34999 17.7616 6.60274 17.8827 6.95134C17.996 7.29908 17.9001 7.68342 17.63 7.93616L14.3705 11.0213Z" fill="#FF9900"/>
</svg>
