<svg width="60" height="60" viewBox="0 0 60 60" fill="none" xmlns="http://www.w3.org/2000/svg">
<circle cx="30.0636" cy="29.9198" r="28.756" stroke="#7A869A" stroke-opacity="0.1"/>
<path d="M22.421 30.0756C21.9147 30.5819 21.9147 31.4059 22.421 31.9172C22.9273 32.4235 23.7513 32.4235 24.2626 31.9172C27.767 28.4127 33.4705 28.4127 36.9749 31.9172C37.2281 32.1703 37.5607 32.2994 37.8932 32.2994C38.2258 32.2994 38.5584 32.1703 38.8115 31.9172C39.3179 31.4109 39.3179 30.5869 38.8115 30.0756C34.2945 25.5536 26.9381 25.5536 22.421 30.0756Z" fill="#172B4D"/>
<path d="M25.9356 33.5901C25.4293 34.0964 25.4293 34.9204 25.9356 35.4316C26.442 35.9379 27.2659 35.9379 27.7772 35.4316C29.3408 33.8631 31.8922 33.8631 33.4558 35.4316C33.709 35.6848 34.0416 35.8139 34.3741 35.8139C34.7067 35.8139 35.0393 35.6848 35.2925 35.4316C35.7988 34.9253 35.7988 34.1013 35.2925 33.595C32.7162 31.0089 28.5168 31.0089 25.9356 33.5901Z" fill="#172B4D"/>
<path d="M30.6165 39.9982C31.5732 39.9982 32.3488 39.2226 32.3488 38.2658C32.3488 37.3091 31.5732 36.5334 30.6165 36.5334C29.6597 36.5334 28.8841 37.3091 28.8841 38.2658C28.8841 39.2226 29.6597 39.9982 30.6165 39.9982Z" fill="#172B4D"/>
<path d="M42.3809 26.5017C35.8932 20.019 25.3401 20.019 18.8524 26.5017C18.3461 27.008 18.3461 27.832 18.8524 28.3433C19.3587 28.8496 20.1827 28.8496 20.694 28.3433C26.1641 22.8682 35.0692 22.8682 40.5443 28.3433C40.7975 28.5964 41.13 28.7255 41.4626 28.7255C41.7952 28.7255 42.1278 28.5964 42.3809 28.3433C42.8872 27.837 42.8872 27.013 42.3809 26.5017Z" fill="#172B4D"/>
</svg>
